<svg width="2037" height="738" viewBox="0 0 2037 738" fill="none" xmlns="http://www.w3.org/2000/svg">
<path d="M780.74 32V2.8H786.66L789.5 12.08C789.793 13.0133 790.033 13.8667 790.22 14.64C790.407 15.4133 790.527 15.9733 790.58 16.32C790.633 15.9733 790.753 15.4133 790.94 14.64C791.127 13.8667 791.353 13.0133 791.62 12.08L794.34 2.8H800.26V32H795.58V22.92C795.58 21.5867 795.62 20.1333 795.7 18.56C795.78 16.9867 795.873 15.4133 795.98 13.84C796.087 12.2667 796.207 10.7733 796.34 9.36C796.5 7.94667 796.633 6.70667 796.74 5.64L792.82 19.44H788.26L784.22 5.64C784.353 6.65333 784.487 7.85333 784.62 9.24C784.753 10.6 784.873 12.0667 784.98 13.64C785.113 15.1867 785.22 16.76 785.3 18.36C785.38 19.96 785.42 21.48 785.42 22.92V32H780.74ZM805.524 32V27.44H813.204V14.52H806.524V10H818.004V27.44H824.804V32H805.524ZM815.204 6.32C814.191 6.32 813.391 6.06667 812.804 5.56C812.218 5.02667 811.924 4.32 811.924 3.44C811.924 2.56 812.218 1.86667 812.804 1.36C813.391 0.826666 814.191 0.559999 815.204 0.559999C816.218 0.559999 817.018 0.826666 817.604 1.36C818.191 1.86667 818.484 2.56 818.484 3.44C818.484 4.32 818.191 5.02667 817.604 5.56C817.018 6.06667 816.218 6.32 815.204 6.32ZM837.629 32.36C835.949 32.36 834.482 32.0933 833.229 31.56C831.975 31.0267 830.989 30.2933 830.269 29.36C829.575 28.4 829.202 27.28 829.149 26H834.149C834.202 26.6933 834.535 27.2533 835.149 27.68C835.789 28.1067 836.615 28.32 837.629 28.32H839.389C840.615 28.32 841.535 28.08 842.149 27.6C842.762 27.12 843.069 26.4667 843.069 25.64C843.069 24.8667 842.789 24.2667 842.229 23.84C841.695 23.3867 840.855 23.0933 839.709 22.96L836.989 22.56C834.482 22.2133 832.642 21.5467 831.469 20.56C830.295 19.5733 829.709 18.0933 829.709 16.12C829.709 14.0667 830.402 12.48 831.789 11.36C833.175 10.2133 835.215 9.64 837.909 9.64H839.429C841.882 9.64 843.842 10.1867 845.309 11.28C846.775 12.3733 847.562 13.84 847.669 15.68H842.669C842.589 15.0933 842.255 14.6133 841.669 14.24C841.109 13.8667 840.362 13.68 839.429 13.68H837.909C836.762 13.68 835.922 13.8933 835.389 14.32C834.882 14.72 834.629 15.32 834.629 16.12C834.629 16.8667 834.855 17.4267 835.309 17.8C835.762 18.1467 836.495 18.4 837.509 18.56L840.349 18.96C842.962 19.3333 844.882 20.04 846.109 21.08C847.362 22.0933 847.989 23.6 847.989 25.6C847.989 27.7333 847.255 29.4 845.789 30.6C844.349 31.7733 842.215 32.36 839.389 32.36H837.629ZM864.853 32C862.746 32 861.093 31.4133 859.893 30.24C858.72 29.0667 858.133 27.4533 858.133 25.4V14.52H852.173V10H858.133V3.8H863.173V10H871.613V14.52H863.173V25.4C863.173 26.7867 863.853 27.48 865.213 27.48H871.213V32H864.853ZM878.198 32V10H882.918V14.2H884.158L882.678 16.76C882.678 14.3867 883.211 12.6 884.278 11.4C885.344 10.2 886.918 9.6 888.998 9.6C891.371 9.6 893.238 10.3333 894.598 11.8C895.958 13.2667 896.638 15.2933 896.638 17.88V19.48H891.398V18.24C891.398 16.8267 891.024 15.7333 890.278 14.96C889.558 14.1867 888.558 13.8 887.278 13.8C885.971 13.8 884.958 14.1867 884.238 14.96C883.544 15.7333 883.198 16.8267 883.198 18.24V32H878.198ZM901.542 32V27.48L913.022 14.4H901.902V10H918.862V14.52L907.262 27.6H919.302V32H901.542ZM949.471 32V2.8H954.471V14.52H962.311V2.8H967.311V32H962.311V19.16H954.471V32H949.471ZM979.935 32.4C977.668 32.4 975.882 31.8 974.575 30.6C973.268 29.4 972.615 27.7867 972.615 25.76C972.615 23.6 973.335 21.9333 974.775 20.76C976.215 19.5867 978.255 19 980.895 19H986.375V17.12C986.375 16.0533 986.028 15.2267 985.335 14.64C984.642 14.0267 983.695 13.72 982.495 13.72C981.402 13.72 980.495 13.96 979.775 14.44C979.055 14.92 978.628 15.5733 978.495 16.4H973.615C973.855 14.32 974.788 12.6667 976.415 11.44C978.042 10.2133 980.122 9.6 982.655 9.6C985.348 9.6 987.468 10.28 989.015 11.64C990.588 12.9733 991.375 14.7867 991.375 17.08V32H986.535V28.16H985.735L986.535 27.08C986.535 28.7067 985.935 30 984.735 30.96C983.535 31.92 981.935 32.4 979.935 32.4ZM981.575 28.64C982.988 28.64 984.135 28.28 985.015 27.56C985.922 26.84 986.375 25.9067 986.375 24.76V22.08H980.975C979.962 22.08 979.148 22.3733 978.535 22.96C977.922 23.5467 977.615 24.32 977.615 25.28C977.615 26.32 977.962 27.1467 978.655 27.76C979.375 28.3467 980.348 28.64 981.575 28.64ZM1006.48 32.4C1004.61 32.4 1002.97 32.0533 1001.56 31.36C1000.17 30.64 999.093 29.64 998.319 28.36C997.546 27.0533 997.159 25.52 997.159 23.76V18.24C997.159 16.4533 997.546 14.92 998.319 13.64C999.093 12.36 1000.17 11.3733 1001.56 10.68C1002.97 9.96 1004.61 9.6 1006.48 9.6C1009.25 9.6 1011.47 10.32 1013.12 11.76C1014.77 13.1733 1015.64 15.1067 1015.72 17.56H1010.72C1010.64 16.4133 1010.23 15.5333 1009.48 14.92C1008.76 14.28 1007.76 13.96 1006.48 13.96C1005.15 13.96 1004.09 14.3333 1003.32 15.08C1002.55 15.8 1002.16 16.84 1002.16 18.2V23.76C1002.16 25.12 1002.55 26.1733 1003.32 26.92C1004.09 27.6667 1005.15 28.04 1006.48 28.04C1007.76 28.04 1008.76 27.7333 1009.48 27.12C1010.23 26.48 1010.64 25.5867 1010.72 24.44H1015.72C1015.64 26.8933 1014.77 28.84 1013.12 30.28C1011.47 31.6933 1009.25 32.4 1006.48 32.4ZM1021.54 32V2.8H1026.54V18.64H1030.02L1035.38 10H1040.98L1034.34 20.64L1041.1 32H1035.38L1030.02 22.88H1026.54V32H1021.54ZM1043.73 32L1051.09 2.8H1057.53L1064.93 32H1059.81L1058.21 24.92H1050.45L1048.85 32H1043.73ZM1051.37 20.84H1057.29L1055.53 13C1055.23 11.6933 1054.98 10.52 1054.77 9.48C1054.55 8.41333 1054.41 7.64 1054.33 7.16C1054.25 7.64 1054.1 8.41333 1053.89 9.48C1053.7 10.52 1053.45 11.68 1053.13 12.96L1051.37 20.84ZM1070.07 32V10H1074.79V14.2H1076.03L1074.55 16.76C1074.55 14.3867 1075.09 12.6 1076.15 11.4C1077.22 10.2 1078.79 9.6 1080.87 9.6C1083.25 9.6 1085.11 10.3333 1086.47 11.8C1087.83 13.2667 1088.51 15.2933 1088.51 17.88V19.48H1083.27V18.24C1083.27 16.8267 1082.9 15.7333 1082.15 14.96C1081.43 14.1867 1080.43 13.8 1079.15 13.8C1077.85 13.8 1076.83 14.1867 1076.11 14.96C1075.42 15.7333 1075.07 16.8267 1075.07 18.24V32H1070.07ZM1102.34 32.4C1100.47 32.4 1098.84 32.04 1097.46 31.32C1096.07 30.6 1094.99 29.6 1094.22 28.32C1093.47 27.0133 1093.1 25.4933 1093.1 23.76V18.24C1093.1 16.5067 1093.47 15 1094.22 13.72C1094.99 12.4133 1096.07 11.4 1097.46 10.68C1098.84 9.96 1100.47 9.6 1102.34 9.6C1104.18 9.6 1105.78 9.96 1107.14 10.68C1108.52 11.4 1109.59 12.4133 1110.34 13.72C1111.11 15 1111.5 16.5067 1111.5 18.24V22.2H1097.94V23.76C1097.94 25.3067 1098.31 26.48 1099.06 27.28C1099.8 28.0533 1100.91 28.44 1102.38 28.44C1103.5 28.44 1104.4 28.2533 1105.1 27.88C1105.79 27.48 1106.23 26.9067 1106.42 26.16H1111.34C1110.96 28.0533 1109.95 29.5733 1108.3 30.72C1106.67 31.84 1104.68 32.4 1102.34 32.4ZM1106.66 19.4V18.2C1106.66 16.68 1106.3 15.52 1105.58 14.72C1104.86 13.8933 1103.78 13.48 1102.34 13.48C1100.9 13.48 1099.8 13.8933 1099.06 14.72C1098.31 15.5467 1097.94 16.72 1097.94 18.24V19.08L1107.02 19L1106.66 19.4ZM1117.36 32V10H1122.24V14.2H1123.6L1122.24 15.36C1122.24 13.5467 1122.76 12.1333 1123.8 11.12C1124.87 10.1067 1126.32 9.6 1128.16 9.6C1130.32 9.6 1132.04 10.32 1133.32 11.76C1134.63 13.2 1135.28 15.1333 1135.28 17.56V32H1130.28V18.08C1130.28 16.7467 1129.93 15.72 1129.24 15C1128.55 14.28 1127.57 13.92 1126.32 13.92C1125.09 13.92 1124.12 14.2933 1123.4 15.04C1122.71 15.7867 1122.36 16.8533 1122.36 18.24V32H1117.36ZM1144.91 39.2L1147.99 30.8L1139.79 10H1145.27L1149.35 21.24C1149.56 21.8533 1149.77 22.6 1149.99 23.48C1150.2 24.3333 1150.36 25.04 1150.47 25.6C1150.6 25.04 1150.77 24.3333 1150.99 23.48C1151.2 22.6 1151.41 21.8533 1151.63 21.24L1155.47 10H1160.75L1150.15 39.2H1144.91ZM1189.39 32V27.16L1198.51 18C1199.79 16.6933 1200.74 15.52 1201.35 14.48C1201.97 13.4133 1202.27 12.32 1202.27 11.2C1202.27 9.84 1201.9 8.78667 1201.15 8.04C1200.41 7.26667 1199.39 6.88 1198.11 6.88C1196.7 6.88 1195.59 7.29333 1194.79 8.12C1193.99 8.92 1193.59 10.04 1193.59 11.48H1188.59C1188.62 9.61333 1189.02 8.01333 1189.79 6.68C1190.59 5.32 1191.71 4.26667 1193.15 3.52C1194.59 2.77333 1196.27 2.4 1198.19 2.4C1200.03 2.4 1201.63 2.74667 1202.99 3.44C1204.35 4.13333 1205.41 5.10667 1206.15 6.36C1206.9 7.61333 1207.27 9.10666 1207.27 10.84C1207.27 12.6267 1206.81 14.3733 1205.87 16.08C1204.97 17.76 1203.5 19.5733 1201.47 21.52L1195.39 27.48H1207.63V32H1189.39ZM1222.22 32.4C1221.07 32.4 1220.15 32.0667 1219.46 31.4C1218.79 30.7333 1218.46 29.8267 1218.46 28.68C1218.46 27.5333 1218.79 26.6267 1219.46 25.96C1220.15 25.2667 1221.07 24.92 1222.22 24.92C1223.37 24.92 1224.27 25.2667 1224.94 25.96C1225.63 26.6267 1225.98 27.5333 1225.98 28.68C1225.98 29.8267 1225.63 30.7333 1224.94 31.4C1224.27 32.0667 1223.37 32.4 1222.22 32.4ZM1246.2 32.4C1244.31 32.4 1242.67 32.04 1241.28 31.32C1239.9 30.6 1238.82 29.5867 1238.04 28.28C1237.3 26.9733 1236.92 25.44 1236.92 23.68V11.12C1236.92 9.36 1237.3 7.82667 1238.04 6.52C1238.82 5.21333 1239.9 4.2 1241.28 3.48C1242.67 2.76 1244.31 2.4 1246.2 2.4C1248.12 2.4 1249.76 2.76 1251.12 3.48C1252.51 4.2 1253.58 5.21333 1254.32 6.52C1255.1 7.82667 1255.48 9.36 1255.48 11.12V23.68C1255.48 25.44 1255.1 26.9733 1254.32 28.28C1253.58 29.5867 1252.51 30.6 1251.12 31.32C1249.74 32.04 1248.1 32.4 1246.2 32.4ZM1246.2 28.08C1247.59 28.08 1248.7 27.68 1249.52 26.88C1250.35 26.08 1250.76 25.0133 1250.76 23.68V11.12C1250.76 9.78667 1250.35 8.72 1249.52 7.92C1248.7 7.12 1247.59 6.72 1246.2 6.72C1244.82 6.72 1243.71 7.12 1242.88 7.92C1242.06 8.72 1241.64 9.78667 1241.64 11.12V23.68C1241.64 25.0133 1242.06 26.08 1242.88 26.88C1243.71 27.68 1244.82 28.08 1246.2 28.08ZM1246.2 20C1245.43 20 1244.79 19.7467 1244.28 19.24C1243.8 18.7333 1243.56 18.08 1243.56 17.28C1243.56 16.48 1243.8 15.84 1244.28 15.36C1244.76 14.88 1245.4 14.64 1246.2 14.64C1247 14.64 1247.64 14.88 1248.12 15.36C1248.6 15.84 1248.84 16.48 1248.84 17.28C1248.84 18.08 1248.6 18.7333 1248.12 19.24C1247.64 19.7467 1247 20 1246.2 20Z" fill="#FFD200"/>
<path d="M1018.5 64L1018.5 114" stroke="#FFD200" stroke-width="6"/>
<path d="M801.619 146H1202.49L1235.38 178.941V234H833.879L801.619 201.692V146Z" fill="#FFD200"/>
<path d="M878.259 205L875.259 175.8H879.579L881.339 196.2C881.392 196.653 881.432 197.213 881.459 197.88C881.512 198.52 881.552 199.173 881.579 199.84C881.632 200.507 881.659 201.093 881.659 201.6C881.712 201.093 881.766 200.507 881.819 199.84C881.872 199.173 881.926 198.52 881.979 197.88C882.059 197.213 882.126 196.653 882.179 196.2L884.579 175.8H888.779L891.019 196.2C891.099 196.653 891.166 197.213 891.219 197.88C891.299 198.52 891.379 199.173 891.459 199.84C891.539 200.507 891.606 201.093 891.659 201.6C891.686 201.093 891.712 200.507 891.739 199.84C891.766 199.173 891.792 198.52 891.819 197.88C891.872 197.213 891.926 196.653 891.979 196.2L893.699 175.8H897.979L894.819 205H889.299L887.139 184.52C887.086 184.013 887.019 183.427 886.939 182.76C886.886 182.067 886.832 181.387 886.779 180.72C886.726 180.027 886.686 179.44 886.659 178.96C886.632 179.44 886.579 180.027 886.499 180.72C886.446 181.387 886.392 182.067 886.339 182.76C886.286 183.427 886.232 184.013 886.179 184.52L883.819 205H878.259ZM901.644 205V200.44H909.324V187.52H902.644V183H914.124V200.44H920.924V205H901.644ZM911.324 179.32C910.31 179.32 909.51 179.067 908.924 178.56C908.337 178.027 908.044 177.32 908.044 176.44C908.044 175.56 908.337 174.867 908.924 174.36C909.51 173.827 910.31 173.56 911.324 173.56C912.337 173.56 913.137 173.827 913.724 174.36C914.31 174.867 914.604 175.56 914.604 176.44C914.604 177.32 914.31 178.027 913.724 178.56C913.137 179.067 912.337 179.32 911.324 179.32ZM934.628 205.4C932.761 205.4 931.135 205.04 929.748 204.32C928.361 203.6 927.281 202.6 926.508 201.32C925.761 200.013 925.388 198.493 925.388 196.76V191.24C925.388 189.507 925.761 188 926.508 186.72C927.281 185.413 928.361 184.4 929.748 183.68C931.135 182.96 932.761 182.6 934.628 182.6C936.468 182.6 938.068 182.96 939.428 183.68C940.815 184.4 941.881 185.413 942.628 186.72C943.401 188 943.788 189.507 943.788 191.24V195.2H930.228V196.76C930.228 198.307 930.601 199.48 931.348 200.28C932.095 201.053 933.201 201.44 934.668 201.44C935.788 201.44 936.695 201.253 937.388 200.88C938.081 200.48 938.521 199.907 938.708 199.16H943.628C943.255 201.053 942.241 202.573 940.588 203.72C938.961 204.84 936.975 205.4 934.628 205.4ZM938.948 192.4V191.2C938.948 189.68 938.588 188.52 937.868 187.72C937.148 186.893 936.068 186.48 934.628 186.48C933.188 186.48 932.095 186.893 931.348 187.72C930.601 188.547 930.228 189.72 930.228 191.24V192.08L939.308 192L938.948 192.4ZM961.932 205C960.492 205 959.226 204.707 958.132 204.12C957.066 203.533 956.226 202.707 955.612 201.64C954.999 200.547 954.692 199.293 954.692 197.88V180.32H947.652V175.8H959.692V197.88C959.692 198.68 959.919 199.32 960.372 199.8C960.852 200.253 961.492 200.48 962.292 200.48H968.932V205H961.932ZM973.757 205V175.8H978.757V191.64H982.237L987.597 183H993.197L986.557 193.64L993.317 205H987.597L982.237 195.88H978.757V205H973.757ZM997.581 205V200.44H1005.26V187.52H998.581V183H1010.06V200.44H1016.86V205H997.581ZM1007.26 179.32C1006.25 179.32 1005.45 179.067 1004.86 178.56C1004.27 178.027 1003.98 177.32 1003.98 176.44C1003.98 175.56 1004.27 174.867 1004.86 174.36C1005.45 173.827 1006.25 173.56 1007.26 173.56C1008.27 173.56 1009.07 173.827 1009.66 174.36C1010.25 174.867 1010.54 175.56 1010.54 176.44C1010.54 177.32 1010.25 178.027 1009.66 178.56C1009.07 179.067 1008.27 179.32 1007.26 179.32ZM1045.71 205V175.8H1063.87V180.44H1050.63V188.24H1062.83V192.88H1050.71V205H1045.71ZM1069.53 205V200.44H1077.21V187.52H1070.53V183H1082.01V200.44H1088.81V205H1069.53ZM1079.21 179.32C1078.2 179.32 1077.4 179.067 1076.81 178.56C1076.23 178.027 1075.93 177.32 1075.93 176.44C1075.93 175.56 1076.23 174.867 1076.81 174.36C1077.4 173.827 1078.2 173.56 1079.21 173.56C1080.23 173.56 1081.03 173.827 1081.61 174.36C1082.2 174.867 1082.49 175.56 1082.49 176.44C1082.49 177.32 1082.2 178.027 1081.61 178.56C1081.03 179.067 1080.23 179.32 1079.21 179.32ZM1093.56 205V183H1098.44V187.2H1099.8L1098.44 188.36C1098.44 186.547 1098.96 185.133 1100 184.12C1101.07 183.107 1102.52 182.6 1104.36 182.6C1106.52 182.6 1108.24 183.32 1109.52 184.76C1110.83 186.2 1111.48 188.133 1111.48 190.56V205H1106.48V191.08C1106.48 189.747 1106.13 188.72 1105.44 188C1104.75 187.28 1103.77 186.92 1102.52 186.92C1101.29 186.92 1100.32 187.293 1099.6 188.04C1098.91 188.787 1098.56 189.853 1098.56 191.24V205H1093.56ZM1124.02 205.4C1121.76 205.4 1119.97 204.8 1118.66 203.6C1117.36 202.4 1116.7 200.787 1116.7 198.76C1116.7 196.6 1117.42 194.933 1118.86 193.76C1120.3 192.587 1122.34 192 1124.98 192H1130.46V190.12C1130.46 189.053 1130.12 188.227 1129.42 187.64C1128.73 187.027 1127.78 186.72 1126.58 186.72C1125.49 186.72 1124.58 186.96 1123.86 187.44C1123.14 187.92 1122.72 188.573 1122.58 189.4H1117.7C1117.94 187.32 1118.88 185.667 1120.5 184.44C1122.13 183.213 1124.21 182.6 1126.74 182.6C1129.44 182.6 1131.56 183.28 1133.1 184.64C1134.68 185.973 1135.46 187.787 1135.46 190.08V205H1130.62V201.16H1129.82L1130.62 200.08C1130.62 201.707 1130.02 203 1128.82 203.96C1127.62 204.92 1126.02 205.4 1124.02 205.4ZM1125.66 201.64C1127.08 201.64 1128.22 201.28 1129.1 200.56C1130.01 199.84 1130.46 198.907 1130.46 197.76V195.08H1125.06C1124.05 195.08 1123.24 195.373 1122.62 195.96C1122.01 196.547 1121.7 197.32 1121.7 198.28C1121.7 199.32 1122.05 200.147 1122.74 200.76C1123.46 201.347 1124.44 201.64 1125.66 201.64ZM1142.45 195.8V191.2L1157.49 182.6V187.2L1142.45 195.8ZM1153.81 205C1152.37 205 1151.1 204.707 1150.01 204.12C1148.94 203.533 1148.1 202.707 1147.49 201.64C1146.87 200.547 1146.57 199.293 1146.57 197.88V180.32H1139.53V175.8H1151.57V197.88C1151.57 198.68 1151.79 199.32 1152.25 199.8C1152.73 200.253 1153.37 200.48 1154.17 200.48H1160.81V205H1153.81Z" fill="#000314"/>
<path d="M975.5 266V300C975.5 308.837 968.337 316 959.5 316H767.5C758.663 316 751.5 323.163 751.5 332V366" stroke="white" stroke-width="6"/>
<path d="M1061.5 266V300C1061.5 308.837 1068.66 316 1077.5 316H1269.5C1278.34 316 1285.5 323.163 1285.5 332V366" stroke="white" stroke-width="6"/>
<path d="M534.738 398H935.607L968.5 430.941V486H566.998L534.738 453.692V398Z" fill="#22263C"/>
<path d="M622.818 457V427.8H632.538C634.485 427.8 636.178 428.173 637.618 428.92C639.085 429.667 640.218 430.72 641.018 432.08C641.818 433.413 642.218 434.987 642.218 436.8C642.218 438.587 641.805 440.16 640.978 441.52C640.178 442.88 639.058 443.933 637.618 444.68C636.178 445.427 634.485 445.8 632.538 445.8H627.818V457H622.818ZM627.818 441.28H632.538C633.925 441.28 635.032 440.88 635.858 440.08C636.712 439.253 637.138 438.16 637.138 436.8C637.138 435.413 636.712 434.32 635.858 433.52C635.032 432.72 633.925 432.32 632.538 432.32H627.818V441.28ZM655.723 457.36C653.856 457.36 652.229 457.013 650.843 456.32C649.483 455.6 648.416 454.6 647.643 453.32C646.896 452.013 646.523 450.48 646.523 448.72V443.28C646.523 441.52 646.896 440 647.643 438.72C648.416 437.413 649.483 436.413 650.843 435.72C652.229 435 653.856 434.64 655.723 434.64C657.616 434.64 659.243 435 660.603 435.72C661.963 436.413 663.016 437.413 663.763 438.72C664.536 440 664.923 441.507 664.923 443.24V448.72C664.923 450.48 664.536 452.013 663.763 453.32C663.016 454.6 661.963 455.6 660.603 456.32C659.243 457.013 657.616 457.36 655.723 457.36ZM655.723 453C657.056 453 658.083 452.64 658.803 451.92C659.549 451.173 659.923 450.107 659.923 448.72V443.28C659.923 441.867 659.549 440.8 658.803 440.08C658.083 439.36 657.056 439 655.723 439C654.416 439 653.389 439.36 652.643 440.08C651.896 440.8 651.523 441.867 651.523 443.28V448.72C651.523 450.107 651.896 451.173 652.643 451.92C653.389 452.64 654.416 453 655.723 453ZM652.683 431.2L656.923 425.6H662.283L657.723 431.2H652.683ZM671.707 447.8V443.2L686.747 434.6V439.2L671.707 447.8ZM683.067 457C681.627 457 680.36 456.707 679.267 456.12C678.2 455.533 677.36 454.707 676.747 453.64C676.134 452.547 675.827 451.293 675.827 449.88V432.32H668.787V427.8H680.827V449.88C680.827 450.68 681.054 451.32 681.507 451.8C681.987 452.253 682.627 452.48 683.427 452.48H690.067V457H683.067ZM699.891 457V441.96H693.851V437.44H699.891V434.12C699.891 432.2 700.531 430.667 701.811 429.52C703.091 428.373 704.785 427.8 706.891 427.8H713.331V432.2H707.011C706.371 432.2 705.851 432.387 705.451 432.76C705.078 433.107 704.891 433.587 704.891 434.2V437.44H713.331V441.96H704.891V457H699.891ZM718.716 457V452.44H726.396V439.52H719.716V435H731.196V452.44H737.996V457H718.716ZM728.396 431.32C727.382 431.32 726.582 431.067 725.996 430.56C725.409 430.027 725.116 429.32 725.116 428.44C725.116 427.56 725.409 426.867 725.996 426.36C726.582 425.827 727.382 425.56 728.396 425.56C729.409 425.56 730.209 425.827 730.796 426.36C731.382 426.867 731.676 427.56 731.676 428.44C731.676 429.32 731.382 430.027 730.796 430.56C730.209 431.067 729.409 431.32 728.396 431.32ZM742.74 457V435H747.62V439.2H748.98L747.62 440.36C747.62 438.547 748.14 437.133 749.18 436.12C750.247 435.107 751.7 434.6 753.54 434.6C755.7 434.6 757.42 435.32 758.7 436.76C760.007 438.2 760.66 440.133 760.66 442.56V457H755.66V443.08C755.66 441.747 755.313 440.72 754.62 440C753.927 439.28 752.953 438.92 751.7 438.92C750.473 438.92 749.5 439.293 748.78 440.04C748.087 440.787 747.74 441.853 747.74 443.24V457H742.74ZM773.205 457.4C770.938 457.4 769.151 456.8 767.845 455.6C766.538 454.4 765.885 452.787 765.885 450.76C765.885 448.6 766.605 446.933 768.045 445.76C769.485 444.587 771.525 444 774.165 444H779.645V442.12C779.645 441.053 779.298 440.227 778.605 439.64C777.911 439.027 776.965 438.72 775.765 438.72C774.671 438.72 773.765 438.96 773.045 439.44C772.325 439.92 771.898 440.573 771.765 441.4H766.885C767.125 439.32 768.058 437.667 769.685 436.44C771.311 435.213 773.391 434.6 775.925 434.6C778.618 434.6 780.738 435.28 782.285 436.64C783.858 437.973 784.645 439.787 784.645 442.08V457H779.805V453.16H779.005L779.805 452.08C779.805 453.707 779.205 455 778.005 455.96C776.805 456.92 775.205 457.4 773.205 457.4ZM774.845 453.64C776.258 453.64 777.405 453.28 778.285 452.56C779.191 451.84 779.645 450.907 779.645 449.76V447.08H774.245C773.231 447.08 772.418 447.373 771.805 447.96C771.191 448.547 770.885 449.32 770.885 450.28C770.885 451.32 771.231 452.147 771.925 452.76C772.645 453.347 773.618 453.64 774.845 453.64ZM791.629 447.8V443.2L806.669 434.6V439.2L791.629 447.8ZM802.989 457C801.549 457 800.282 456.707 799.189 456.12C798.122 455.533 797.282 454.707 796.669 453.64C796.056 452.547 795.749 451.293 795.749 449.88V432.32H788.709V427.8H800.749V449.88C800.749 450.68 800.976 451.32 801.429 451.8C801.909 452.253 802.549 452.48 803.349 452.48H809.989V457H802.989ZM838.598 457L839.918 449.72H836.638V446.28H840.518L841.878 438.52H837.918V435.08H842.478L843.758 427.8H847.398L846.078 435.08H851.678L852.958 427.8H856.598L855.278 435.08H858.558V438.52H854.678L853.318 446.28H857.278V449.72H852.718L851.438 457H847.798L849.118 449.72H843.518L842.238 457H838.598ZM844.118 446.28H849.718L851.078 438.52H845.478L844.118 446.28ZM862.942 457V452.6H870.542V432.24L862.902 437.92V432.64L869.622 427.8H875.542V452.6H881.662V457H862.942Z" fill="white"/>
<path d="M1068.5 398H1469.37L1502.26 430.941V486H1100.76L1068.5 453.692V398Z" fill="#22263C"/>
<path d="M1156.82 457V427.8H1166.54C1168.48 427.8 1170.18 428.173 1171.62 428.92C1173.08 429.667 1174.22 430.72 1175.02 432.08C1175.82 433.413 1176.22 434.987 1176.22 436.8C1176.22 438.587 1175.8 440.16 1174.98 441.52C1174.18 442.88 1173.06 443.933 1171.62 444.68C1170.18 445.427 1168.48 445.8 1166.54 445.8H1161.82V457H1156.82ZM1161.82 441.28H1166.54C1167.92 441.28 1169.03 440.88 1169.86 440.08C1170.71 439.253 1171.14 438.16 1171.14 436.8C1171.14 435.413 1170.71 434.32 1169.86 433.52C1169.03 432.72 1167.92 432.32 1166.54 432.32H1161.82V441.28ZM1189.72 457.36C1187.86 457.36 1186.23 457.013 1184.84 456.32C1183.48 455.6 1182.42 454.6 1181.64 453.32C1180.9 452.013 1180.52 450.48 1180.52 448.72V443.28C1180.52 441.52 1180.9 440 1181.64 438.72C1182.42 437.413 1183.48 436.413 1184.84 435.72C1186.23 435 1187.86 434.64 1189.72 434.64C1191.62 434.64 1193.24 435 1194.6 435.72C1195.96 436.413 1197.02 437.413 1197.76 438.72C1198.54 440 1198.92 441.507 1198.92 443.24V448.72C1198.92 450.48 1198.54 452.013 1197.76 453.32C1197.02 454.6 1195.96 455.6 1194.6 456.32C1193.24 457.013 1191.62 457.36 1189.72 457.36ZM1189.72 453C1191.06 453 1192.08 452.64 1192.8 451.92C1193.55 451.173 1193.92 450.107 1193.92 448.72V443.28C1193.92 441.867 1193.55 440.8 1192.8 440.08C1192.08 439.36 1191.06 439 1189.72 439C1188.42 439 1187.39 439.36 1186.64 440.08C1185.9 440.8 1185.52 441.867 1185.52 443.28V448.72C1185.52 450.107 1185.9 451.173 1186.64 451.92C1187.39 452.64 1188.42 453 1189.72 453ZM1186.68 431.2L1190.92 425.6H1196.28L1191.72 431.2H1186.68ZM1205.71 447.8V443.2L1220.75 434.6V439.2L1205.71 447.8ZM1217.07 457C1215.63 457 1214.36 456.707 1213.27 456.12C1212.2 455.533 1211.36 454.707 1210.75 453.64C1210.13 452.547 1209.83 451.293 1209.83 449.88V432.32H1202.79V427.8H1214.83V449.88C1214.83 450.68 1215.05 451.32 1215.51 451.8C1215.99 452.253 1216.63 452.48 1217.43 452.48H1224.07V457H1217.07ZM1233.89 457V441.96H1227.85V437.44H1233.89V434.12C1233.89 432.2 1234.53 430.667 1235.81 429.52C1237.09 428.373 1238.78 427.8 1240.89 427.8H1247.33V432.2H1241.01C1240.37 432.2 1239.85 432.387 1239.45 432.76C1239.08 433.107 1238.89 433.587 1238.89 434.2V437.44H1247.33V441.96H1238.89V457H1233.89ZM1252.72 457V452.44H1260.4V439.52H1253.72V435H1265.2V452.44H1272V457H1252.72ZM1262.4 431.32C1261.38 431.32 1260.58 431.067 1260 430.56C1259.41 430.027 1259.12 429.32 1259.12 428.44C1259.12 427.56 1259.41 426.867 1260 426.36C1260.58 425.827 1261.38 425.56 1262.4 425.56C1263.41 425.56 1264.21 425.827 1264.8 426.36C1265.38 426.867 1265.68 427.56 1265.68 428.44C1265.68 429.32 1265.38 430.027 1264.8 430.56C1264.21 431.067 1263.41 431.32 1262.4 431.32ZM1276.74 457V435H1281.62V439.2H1282.98L1281.62 440.36C1281.62 438.547 1282.14 437.133 1283.18 436.12C1284.25 435.107 1285.7 434.6 1287.54 434.6C1289.7 434.6 1291.42 435.32 1292.7 436.76C1294.01 438.2 1294.66 440.133 1294.66 442.56V457H1289.66V443.08C1289.66 441.747 1289.31 440.72 1288.62 440C1287.93 439.28 1286.95 438.92 1285.7 438.92C1284.47 438.92 1283.5 439.293 1282.78 440.04C1282.09 440.787 1281.74 441.853 1281.74 443.24V457H1276.74ZM1307.2 457.4C1304.94 457.4 1303.15 456.8 1301.84 455.6C1300.54 454.4 1299.88 452.787 1299.88 450.76C1299.88 448.6 1300.6 446.933 1302.04 445.76C1303.48 444.587 1305.52 444 1308.16 444H1313.64V442.12C1313.64 441.053 1313.3 440.227 1312.6 439.64C1311.91 439.027 1310.96 438.72 1309.76 438.72C1308.67 438.72 1307.76 438.96 1307.04 439.44C1306.32 439.92 1305.9 440.573 1305.76 441.4H1300.88C1301.12 439.32 1302.06 437.667 1303.68 436.44C1305.31 435.213 1307.39 434.6 1309.92 434.6C1312.62 434.6 1314.74 435.28 1316.28 436.64C1317.86 437.973 1318.64 439.787 1318.64 442.08V457H1313.8V453.16H1313L1313.8 452.08C1313.8 453.707 1313.2 455 1312 455.96C1310.8 456.92 1309.2 457.4 1307.2 457.4ZM1308.84 453.64C1310.26 453.64 1311.4 453.28 1312.28 452.56C1313.19 451.84 1313.64 450.907 1313.64 449.76V447.08H1308.24C1307.23 447.08 1306.42 447.373 1305.8 447.96C1305.19 448.547 1304.88 449.32 1304.88 450.28C1304.88 451.32 1305.23 452.147 1305.92 452.76C1306.64 453.347 1307.62 453.64 1308.84 453.64ZM1325.63 447.8V443.2L1340.67 434.6V439.2L1325.63 447.8ZM1336.99 457C1335.55 457 1334.28 456.707 1333.19 456.12C1332.12 455.533 1331.28 454.707 1330.67 453.64C1330.06 452.547 1329.75 451.293 1329.75 449.88V432.32H1322.71V427.8H1334.75V449.88C1334.75 450.68 1334.98 451.32 1335.43 451.8C1335.91 452.253 1336.55 452.48 1337.35 452.48H1343.99V457H1336.99ZM1372.6 457L1373.92 449.72H1370.64V446.28H1374.52L1375.88 438.52H1371.92V435.08H1376.48L1377.76 427.8H1381.4L1380.08 435.08H1385.68L1386.96 427.8H1390.6L1389.28 435.08H1392.56V438.52H1388.68L1387.32 446.28H1391.28V449.72H1386.72L1385.44 457H1381.8L1383.12 449.72H1377.52L1376.24 457H1372.6ZM1378.12 446.28H1383.72L1385.08 438.52H1379.48L1378.12 446.28ZM1396.74 457V452.16L1405.86 443C1407.14 441.693 1408.09 440.52 1408.7 439.48C1409.32 438.413 1409.62 437.32 1409.62 436.2C1409.62 434.84 1409.25 433.787 1408.5 433.04C1407.76 432.267 1406.74 431.88 1405.46 431.88C1404.05 431.88 1402.94 432.293 1402.14 433.12C1401.34 433.92 1400.94 435.04 1400.94 436.48H1395.94C1395.97 434.613 1396.37 433.013 1397.14 431.68C1397.94 430.32 1399.06 429.267 1400.5 428.52C1401.94 427.773 1403.62 427.4 1405.54 427.4C1407.38 427.4 1408.98 427.747 1410.34 428.44C1411.7 429.133 1412.76 430.107 1413.5 431.36C1414.25 432.613 1414.62 434.107 1414.62 435.84C1414.62 437.627 1414.16 439.373 1413.22 441.08C1412.32 442.76 1410.85 444.573 1408.82 446.52L1402.74 452.48H1414.98V457H1396.74Z" fill="white"/>
<path d="M796.25 518L796.25 618" stroke="white" stroke-width="6"/>
<path d="M1241.25 518L1241.25 618" stroke="white" stroke-width="6"/>
<path d="M707.75 518V552C707.75 560.837 700.587 568 691.75 568H234.25C225.413 568 218.25 575.163 218.25 584V618" stroke="white" stroke-width="6"/>
<path d="M1329.25 518V552C1329.25 560.837 1336.41 568 1345.25 568H1802.75C1811.59 568 1818.75 575.163 1818.75 584V618" stroke="white" stroke-width="6"/>
<path d="M0.977051 650H401.846L434.738 682.941V738H33.237L0.977051 705.692V650Z" fill="#22263C"/>
<path d="M62.1371 709.4C60.2704 709.4 58.6304 709.053 57.2171 708.36C55.8304 707.64 54.7504 706.64 53.9771 705.36C53.2304 704.053 52.8571 702.52 52.8571 700.76V688.04C52.8571 686.253 53.2304 684.72 53.9771 683.44C54.7504 682.16 55.8304 681.173 57.2171 680.48C58.6304 679.76 60.2704 679.4 62.1371 679.4C64.0304 679.4 65.6571 679.76 67.0171 680.48C68.4037 681.173 69.4837 682.16 70.2571 683.44C71.0304 684.72 71.4171 686.253 71.4171 688.04H66.3771C66.3771 686.653 66.0037 685.6 65.2571 684.88C64.5371 684.16 63.4971 683.8 62.1371 683.8C60.7771 683.8 59.7237 684.16 58.9771 684.88C58.2304 685.6 57.8571 686.64 57.8571 688V700.76C57.8571 702.12 58.2304 703.173 58.9771 703.92C59.7237 704.64 60.7771 705 62.1371 705C63.4971 705 64.5371 704.64 65.2571 703.92C66.0037 703.173 66.3771 702.12 66.3771 700.76H71.4171C71.4171 702.493 71.0304 704.013 70.2571 705.32C69.4837 706.627 68.4037 707.64 67.0171 708.36C65.6571 709.053 64.0304 709.4 62.1371 709.4ZM59.1371 676.6L63.3771 671H68.7371L64.1771 676.6H59.1371ZM78.1214 709L74.7614 687H78.9214L80.7614 700.48C80.8681 701.253 80.9614 702.107 81.0414 703.04C81.1481 703.973 81.2281 704.747 81.2814 705.36C81.3614 704.747 81.4681 703.973 81.6014 703.04C81.7348 702.107 81.8548 701.253 81.9614 700.48L84.0414 687H87.9214L89.9614 700.48C90.0681 701.253 90.1881 702.12 90.3214 703.08C90.4548 704.013 90.5614 704.787 90.6414 705.4C90.6948 704.76 90.7748 703.973 90.8814 703.04C91.0148 702.08 91.1214 701.227 91.2014 700.48L93.1614 687H97.1614L93.7214 709H88.5614L86.6414 695.44C86.5348 694.693 86.4148 693.867 86.2814 692.96C86.1481 692.027 86.0414 691.267 85.9614 690.68C85.8814 691.267 85.7748 692.027 85.6414 692.96C85.5348 693.867 85.4148 694.693 85.2814 695.44L83.2814 709H78.1214ZM100.986 709V704.44H108.666V691.52H101.986V687H113.466V704.44H120.266V709H100.986ZM110.666 683.32C109.652 683.32 108.852 683.067 108.266 682.56C107.679 682.027 107.386 681.32 107.386 680.44C107.386 679.56 107.679 678.867 108.266 678.36C108.852 677.827 109.652 677.56 110.666 677.56C111.679 677.56 112.479 677.827 113.066 678.36C113.652 678.867 113.946 679.56 113.946 680.44C113.946 681.32 113.652 682.027 113.066 682.56C112.479 683.067 111.679 683.32 110.666 683.32ZM133.97 709.4C132.104 709.4 130.477 709.04 129.09 708.32C127.704 707.6 126.624 706.6 125.85 705.32C125.104 704.013 124.73 702.493 124.73 700.76V695.24C124.73 693.507 125.104 692 125.85 690.72C126.624 689.413 127.704 688.4 129.09 687.68C130.477 686.96 132.104 686.6 133.97 686.6C135.81 686.6 137.41 686.96 138.77 687.68C140.157 688.4 141.224 689.413 141.97 690.72C142.744 692 143.13 693.507 143.13 695.24V699.2H129.57V700.76C129.57 702.307 129.944 703.48 130.69 704.28C131.437 705.053 132.544 705.44 134.01 705.44C135.13 705.44 136.037 705.253 136.73 704.88C137.424 704.48 137.864 703.907 138.05 703.16H142.97C142.597 705.053 141.584 706.573 139.93 707.72C138.304 708.84 136.317 709.4 133.97 709.4ZM138.29 696.4V695.2C138.29 693.68 137.93 692.52 137.21 691.72C136.49 690.893 135.41 690.48 133.97 690.48C132.53 690.48 131.437 690.893 130.69 691.72C129.944 692.547 129.57 693.72 129.57 695.24V696.08L138.65 696L138.29 696.4ZM149.675 709V687H154.395V691.2H155.635L154.155 693.76C154.155 691.387 154.688 689.6 155.755 688.4C156.821 687.2 158.395 686.6 160.475 686.6C162.848 686.6 164.715 687.333 166.075 688.8C167.435 690.267 168.115 692.293 168.115 694.88V696.48H162.875V695.24C162.875 693.827 162.501 692.733 161.755 691.96C161.035 691.187 160.035 690.8 158.755 690.8C157.448 690.8 156.435 691.187 155.715 691.96C155.021 692.733 154.675 693.827 154.675 695.24V709H149.675ZM182.019 709.4C180.152 709.4 178.512 709.053 177.099 708.36C175.712 707.64 174.632 706.64 173.859 705.36C173.086 704.053 172.699 702.52 172.699 700.76V695.24C172.699 693.453 173.086 691.92 173.859 690.64C174.632 689.36 175.712 688.373 177.099 687.68C178.512 686.96 180.152 686.6 182.019 686.6C184.792 686.6 187.006 687.32 188.659 688.76C190.312 690.173 191.179 692.107 191.259 694.56H186.259C186.179 693.413 185.766 692.533 185.019 691.92C184.299 691.28 183.299 690.96 182.019 690.96C180.686 690.96 179.632 691.333 178.859 692.08C178.086 692.8 177.699 693.84 177.699 695.2V700.76C177.699 702.12 178.086 703.173 178.859 703.92C179.632 704.667 180.686 705.04 182.019 705.04C183.299 705.04 184.299 704.733 185.019 704.12C185.766 703.48 186.179 702.587 186.259 701.44H191.259C191.179 703.893 190.312 705.84 188.659 707.28C187.006 708.693 184.792 709.4 182.019 709.4ZM178.979 683.2L183.219 677.6H188.579L184.019 683.2H178.979ZM202.083 709V693.96H196.043V689.44H202.083V686.12C202.083 684.2 202.723 682.667 204.003 681.52C205.283 680.373 206.977 679.8 209.083 679.8H215.523V684.2H209.203C208.563 684.2 208.043 684.387 207.643 684.76C207.27 685.107 207.083 685.587 207.083 686.2V689.44H215.523V693.96H207.083V709H202.083ZM220.908 709V704.44H228.588V691.52H221.908V687H233.388V704.44H240.188V709H220.908ZM230.588 683.32C229.574 683.32 228.774 683.067 228.188 682.56C227.601 682.027 227.308 681.32 227.308 680.44C227.308 679.56 227.601 678.867 228.188 678.36C228.774 677.827 229.574 677.56 230.588 677.56C231.601 677.56 232.401 677.827 232.988 678.36C233.574 678.867 233.868 679.56 233.868 680.44C233.868 681.32 233.574 682.027 232.988 682.56C232.401 683.067 231.601 683.32 230.588 683.32ZM244.932 709V687H249.812V691.2H251.172L249.812 692.36C249.812 690.547 250.332 689.133 251.372 688.12C252.439 687.107 253.892 686.6 255.732 686.6C257.892 686.6 259.612 687.32 260.892 688.76C262.199 690.2 262.852 692.133 262.852 694.56V709H257.852V695.08C257.852 693.747 257.505 692.72 256.812 692C256.119 691.28 255.145 690.92 253.892 690.92C252.665 690.92 251.692 691.293 250.972 692.04C250.279 692.787 249.932 693.853 249.932 695.24V709H244.932ZM275.396 709.4C273.13 709.4 271.343 708.8 270.036 707.6C268.73 706.4 268.076 704.787 268.076 702.76C268.076 700.6 268.796 698.933 270.236 697.76C271.676 696.587 273.716 696 276.356 696H281.836V694.12C281.836 693.053 281.49 692.227 280.796 691.64C280.103 691.027 279.156 690.72 277.956 690.72C276.863 690.72 275.956 690.96 275.236 691.44C274.516 691.92 274.09 692.573 273.956 693.4H269.076C269.316 691.32 270.25 689.667 271.876 688.44C273.503 687.213 275.583 686.6 278.116 686.6C280.81 686.6 282.93 687.28 284.476 688.64C286.05 689.973 286.836 691.787 286.836 694.08V709H281.996V705.16H281.196L281.996 704.08C281.996 705.707 281.396 707 280.196 707.96C278.996 708.92 277.396 709.4 275.396 709.4ZM277.036 705.64C278.45 705.64 279.596 705.28 280.476 704.56C281.383 703.84 281.836 702.907 281.836 701.76V699.08H276.436C275.423 699.08 274.61 699.373 273.996 699.96C273.383 700.547 273.076 701.32 273.076 702.28C273.076 703.32 273.423 704.147 274.116 704.76C274.836 705.347 275.81 705.64 277.036 705.64ZM293.821 699.8V695.2L308.861 686.6V691.2L293.821 699.8ZM305.181 709C303.741 709 302.474 708.707 301.381 708.12C300.314 707.533 299.474 706.707 298.861 705.64C298.247 704.547 297.941 703.293 297.941 701.88V684.32H290.901V679.8H302.941V701.88C302.941 702.68 303.167 703.32 303.621 703.8C304.101 704.253 304.741 704.48 305.541 704.48H312.181V709H305.181ZM340.79 709L342.11 701.72H338.83V698.28H342.71L344.07 690.52H340.11V687.08H344.67L345.95 679.8H349.59L348.27 687.08H353.87L355.15 679.8H358.79L357.47 687.08H360.75V690.52H356.87L355.51 698.28H359.47V701.72H354.91L353.63 709H349.99L351.31 701.72H345.71L344.43 709H340.79ZM346.31 698.28H351.91L353.27 690.52H347.67L346.31 698.28ZM365.134 709V704.6H372.734V684.24L365.094 689.92V684.64L371.814 679.8H377.734V704.6H383.854V709H365.134Z" fill="white"/>
<path d="M534.738 650H935.607L968.5 682.941V738H566.998L534.738 705.692V650Z" fill="#22263C"/>
<path d="M595.898 709.4C594.032 709.4 592.392 709.053 590.978 708.36C589.592 707.64 588.512 706.64 587.738 705.36C586.992 704.053 586.618 702.52 586.618 700.76V688.04C586.618 686.253 586.992 684.72 587.738 683.44C588.512 682.16 589.592 681.173 590.978 680.48C592.392 679.76 594.032 679.4 595.898 679.4C597.792 679.4 599.418 679.76 600.778 680.48C602.165 681.173 603.245 682.16 604.018 683.44C604.792 684.72 605.178 686.253 605.178 688.04H600.138C600.138 686.653 599.765 685.6 599.018 684.88C598.298 684.16 597.258 683.8 595.898 683.8C594.538 683.8 593.485 684.16 592.738 684.88C591.992 685.6 591.618 686.64 591.618 688V700.76C591.618 702.12 591.992 703.173 592.738 703.92C593.485 704.64 594.538 705 595.898 705C597.258 705 598.298 704.64 599.018 703.92C599.765 703.173 600.138 702.12 600.138 700.76H605.178C605.178 702.493 604.792 704.013 604.018 705.32C603.245 706.627 602.165 707.64 600.778 708.36C599.418 709.053 597.792 709.4 595.898 709.4ZM592.898 676.6L597.138 671H602.498L597.938 676.6H592.898ZM611.883 709L608.523 687H612.683L614.523 700.48C614.629 701.253 614.723 702.107 614.803 703.04C614.909 703.973 614.989 704.747 615.043 705.36C615.123 704.747 615.229 703.973 615.363 703.04C615.496 702.107 615.616 701.253 615.723 700.48L617.803 687H621.683L623.723 700.48C623.829 701.253 623.949 702.12 624.083 703.08C624.216 704.013 624.323 704.787 624.403 705.4C624.456 704.76 624.536 703.973 624.643 703.04C624.776 702.08 624.883 701.227 624.963 700.48L626.923 687H630.923L627.483 709H622.323L620.403 695.44C620.296 694.693 620.176 693.867 620.043 692.96C619.909 692.027 619.803 691.267 619.723 690.68C619.643 691.267 619.536 692.027 619.403 692.96C619.296 693.867 619.176 694.693 619.043 695.44L617.043 709H611.883ZM634.747 709V704.44H642.427V691.52H635.747V687H647.227V704.44H654.027V709H634.747ZM644.427 683.32C643.414 683.32 642.614 683.067 642.027 682.56C641.44 682.027 641.147 681.32 641.147 680.44C641.147 679.56 641.44 678.867 642.027 678.36C642.614 677.827 643.414 677.56 644.427 677.56C645.44 677.56 646.24 677.827 646.827 678.36C647.414 678.867 647.707 679.56 647.707 680.44C647.707 681.32 647.414 682.027 646.827 682.56C646.24 683.067 645.44 683.32 644.427 683.32ZM667.731 709.4C665.865 709.4 664.238 709.04 662.851 708.32C661.465 707.6 660.385 706.6 659.611 705.32C658.865 704.013 658.491 702.493 658.491 700.76V695.24C658.491 693.507 658.865 692 659.611 690.72C660.385 689.413 661.465 688.4 662.851 687.68C664.238 686.96 665.865 686.6 667.731 686.6C669.571 686.6 671.171 686.96 672.531 687.68C673.918 688.4 674.985 689.413 675.731 690.72C676.505 692 676.891 693.507 676.891 695.24V699.2H663.331V700.76C663.331 702.307 663.705 703.48 664.451 704.28C665.198 705.053 666.305 705.44 667.771 705.44C668.891 705.44 669.798 705.253 670.491 704.88C671.185 704.48 671.625 703.907 671.811 703.16H676.731C676.358 705.053 675.345 706.573 673.691 707.72C672.065 708.84 670.078 709.4 667.731 709.4ZM672.051 696.4V695.2C672.051 693.68 671.691 692.52 670.971 691.72C670.251 690.893 669.171 690.48 667.731 690.48C666.291 690.48 665.198 690.893 664.451 691.72C663.705 692.547 663.331 693.72 663.331 695.24V696.08L672.411 696L672.051 696.4ZM683.436 709V687H688.156V691.2H689.396L687.916 693.76C687.916 691.387 688.449 689.6 689.516 688.4C690.582 687.2 692.156 686.6 694.236 686.6C696.609 686.6 698.476 687.333 699.836 688.8C701.196 690.267 701.876 692.293 701.876 694.88V696.48H696.636V695.24C696.636 693.827 696.262 692.733 695.516 691.96C694.796 691.187 693.796 690.8 692.516 690.8C691.209 690.8 690.196 691.187 689.476 691.96C688.782 692.733 688.436 693.827 688.436 695.24V709H683.436ZM715.78 709.4C713.913 709.4 712.273 709.053 710.86 708.36C709.473 707.64 708.393 706.64 707.62 705.36C706.847 704.053 706.46 702.52 706.46 700.76V695.24C706.46 693.453 706.847 691.92 707.62 690.64C708.393 689.36 709.473 688.373 710.86 687.68C712.273 686.96 713.913 686.6 715.78 686.6C718.553 686.6 720.767 687.32 722.42 688.76C724.073 690.173 724.94 692.107 725.02 694.56H720.02C719.94 693.413 719.527 692.533 718.78 691.92C718.06 691.28 717.06 690.96 715.78 690.96C714.447 690.96 713.393 691.333 712.62 692.08C711.847 692.8 711.46 693.84 711.46 695.2V700.76C711.46 702.12 711.847 703.173 712.62 703.92C713.393 704.667 714.447 705.04 715.78 705.04C717.06 705.04 718.06 704.733 718.78 704.12C719.527 703.48 719.94 702.587 720.02 701.44H725.02C724.94 703.893 724.073 705.84 722.42 707.28C720.767 708.693 718.553 709.4 715.78 709.4ZM712.74 683.2L716.98 677.6H722.34L717.78 683.2H712.74ZM735.845 709V693.96H729.805V689.44H735.845V686.12C735.845 684.2 736.485 682.667 737.765 681.52C739.045 680.373 740.738 679.8 742.845 679.8H749.285V684.2H742.965C742.325 684.2 741.805 684.387 741.405 684.76C741.031 685.107 740.845 685.587 740.845 686.2V689.44H749.285V693.96H740.845V709H735.845ZM754.669 709V704.44H762.349V691.52H755.669V687H767.149V704.44H773.949V709H754.669ZM764.349 683.32C763.336 683.32 762.536 683.067 761.949 682.56C761.362 682.027 761.069 681.32 761.069 680.44C761.069 679.56 761.362 678.867 761.949 678.36C762.536 677.827 763.336 677.56 764.349 677.56C765.362 677.56 766.162 677.827 766.749 678.36C767.336 678.867 767.629 679.56 767.629 680.44C767.629 681.32 767.336 682.027 766.749 682.56C766.162 683.067 765.362 683.32 764.349 683.32ZM778.693 709V687H783.573V691.2H784.933L783.573 692.36C783.573 690.547 784.093 689.133 785.133 688.12C786.2 687.107 787.653 686.6 789.493 686.6C791.653 686.6 793.373 687.32 794.653 688.76C795.96 690.2 796.613 692.133 796.613 694.56V709H791.613V695.08C791.613 693.747 791.267 692.72 790.573 692C789.88 691.28 788.907 690.92 787.653 690.92C786.427 690.92 785.453 691.293 784.733 692.04C784.04 692.787 783.693 693.853 783.693 695.24V709H778.693ZM809.158 709.4C806.891 709.4 805.104 708.8 803.798 707.6C802.491 706.4 801.838 704.787 801.838 702.76C801.838 700.6 802.558 698.933 803.998 697.76C805.438 696.587 807.478 696 810.118 696H815.598V694.12C815.598 693.053 815.251 692.227 814.558 691.64C813.864 691.027 812.918 690.72 811.718 690.72C810.624 690.72 809.718 690.96 808.998 691.44C808.278 691.92 807.851 692.573 807.718 693.4H802.838C803.078 691.32 804.011 689.667 805.638 688.44C807.264 687.213 809.344 686.6 811.878 686.6C814.571 686.6 816.691 687.28 818.238 688.64C819.811 689.973 820.598 691.787 820.598 694.08V709H815.758V705.16H814.958L815.758 704.08C815.758 705.707 815.158 707 813.958 707.96C812.758 708.92 811.158 709.4 809.158 709.4ZM810.798 705.64C812.211 705.64 813.358 705.28 814.238 704.56C815.144 703.84 815.598 702.907 815.598 701.76V699.08H810.198C809.184 699.08 808.371 699.373 807.758 699.96C807.144 700.547 806.838 701.32 806.838 702.28C806.838 703.32 807.184 704.147 807.878 704.76C808.598 705.347 809.571 705.64 810.798 705.64ZM827.582 699.8V695.2L842.622 686.6V691.2L827.582 699.8ZM838.942 709C837.502 709 836.235 708.707 835.142 708.12C834.075 707.533 833.235 706.707 832.622 705.64C832.009 704.547 831.702 703.293 831.702 701.88V684.32H824.662V679.8H836.702V701.88C836.702 702.68 836.929 703.32 837.382 703.8C837.862 704.253 838.502 704.48 839.302 704.48H845.942V709H838.942ZM874.551 709L875.871 701.72H872.591V698.28H876.471L877.831 690.52H873.871V687.08H878.431L879.711 679.8H883.351L882.031 687.08H887.631L888.911 679.8H892.551L891.231 687.08H894.511V690.52H890.631L889.271 698.28H893.231V701.72H888.671L887.391 709H883.751L885.071 701.72H879.471L878.191 709H874.551ZM880.071 698.28H885.671L887.031 690.52H881.431L880.071 698.28ZM898.695 709V704.16L907.815 695C909.095 693.693 910.042 692.52 910.655 691.48C911.268 690.413 911.575 689.32 911.575 688.2C911.575 686.84 911.202 685.787 910.455 685.04C909.708 684.267 908.695 683.88 907.415 683.88C906.002 683.88 904.895 684.293 904.095 685.12C903.295 685.92 902.895 687.04 902.895 688.48H897.895C897.922 686.613 898.322 685.013 899.095 683.68C899.895 682.32 901.015 681.267 902.455 680.52C903.895 679.773 905.575 679.4 907.495 679.4C909.335 679.4 910.935 679.747 912.295 680.44C913.655 681.133 914.708 682.107 915.455 683.36C916.202 684.613 916.575 686.107 916.575 687.84C916.575 689.627 916.108 691.373 915.175 693.08C914.268 694.76 912.802 696.573 910.775 698.52L904.695 704.48H916.935V709H898.695Z" fill="white"/>
<path d="M1068.5 650H1469.37L1502.26 682.941V738H1100.76L1068.5 705.692V650Z" fill="#22263C"/>
<path d="M1129.66 709.4C1127.79 709.4 1126.15 709.053 1124.74 708.36C1123.35 707.64 1122.27 706.64 1121.5 705.36C1120.75 704.053 1120.38 702.52 1120.38 700.76V688.04C1120.38 686.253 1120.75 684.72 1121.5 683.44C1122.27 682.16 1123.35 681.173 1124.74 680.48C1126.15 679.76 1127.79 679.4 1129.66 679.4C1131.55 679.4 1133.18 679.76 1134.54 680.48C1135.93 681.173 1137.01 682.16 1137.78 683.44C1138.55 684.72 1138.94 686.253 1138.94 688.04H1133.9C1133.9 686.653 1133.53 685.6 1132.78 684.88C1132.06 684.16 1131.02 683.8 1129.66 683.8C1128.3 683.8 1127.25 684.16 1126.5 684.88C1125.75 685.6 1125.38 686.64 1125.38 688V700.76C1125.38 702.12 1125.75 703.173 1126.5 703.92C1127.25 704.64 1128.3 705 1129.66 705C1131.02 705 1132.06 704.64 1132.78 703.92C1133.53 703.173 1133.9 702.12 1133.9 700.76H1138.94C1138.94 702.493 1138.55 704.013 1137.78 705.32C1137.01 706.627 1135.93 707.64 1134.54 708.36C1133.18 709.053 1131.55 709.4 1129.66 709.4ZM1126.66 676.6L1130.9 671H1136.26L1131.7 676.6H1126.66ZM1145.64 709L1142.28 687H1146.44L1148.28 700.48C1148.39 701.253 1148.48 702.107 1148.56 703.04C1148.67 703.973 1148.75 704.747 1148.8 705.36C1148.88 704.747 1148.99 703.973 1149.12 703.04C1149.26 702.107 1149.38 701.253 1149.48 700.48L1151.56 687H1155.44L1157.48 700.48C1157.59 701.253 1157.71 702.12 1157.84 703.08C1157.98 704.013 1158.08 704.787 1158.16 705.4C1158.22 704.76 1158.3 703.973 1158.4 703.04C1158.54 702.08 1158.64 701.227 1158.72 700.48L1160.68 687H1164.68L1161.24 709H1156.08L1154.16 695.44C1154.06 694.693 1153.94 693.867 1153.8 692.96C1153.67 692.027 1153.56 691.267 1153.48 690.68C1153.4 691.267 1153.3 692.027 1153.16 692.96C1153.06 693.867 1152.94 694.693 1152.8 695.44L1150.8 709H1145.64ZM1168.51 709V704.44H1176.19V691.52H1169.51V687H1180.99V704.44H1187.79V709H1168.51ZM1178.19 683.32C1177.18 683.32 1176.38 683.067 1175.79 682.56C1175.2 682.027 1174.91 681.32 1174.91 680.44C1174.91 679.56 1175.2 678.867 1175.79 678.36C1176.38 677.827 1177.18 677.56 1178.19 677.56C1179.2 677.56 1180 677.827 1180.59 678.36C1181.18 678.867 1181.47 679.56 1181.47 680.44C1181.47 681.32 1181.18 682.027 1180.59 682.56C1180 683.067 1179.2 683.32 1178.19 683.32ZM1201.49 709.4C1199.63 709.4 1198 709.04 1196.61 708.32C1195.23 707.6 1194.15 706.6 1193.37 705.32C1192.63 704.013 1192.25 702.493 1192.25 700.76V695.24C1192.25 693.507 1192.63 692 1193.37 690.72C1194.15 689.413 1195.23 688.4 1196.61 687.68C1198 686.96 1199.63 686.6 1201.49 686.6C1203.33 686.6 1204.93 686.96 1206.29 687.68C1207.68 688.4 1208.75 689.413 1209.49 690.72C1210.27 692 1210.65 693.507 1210.65 695.24V699.2H1197.09V700.76C1197.09 702.307 1197.47 703.48 1198.21 704.28C1198.96 705.053 1200.07 705.44 1201.53 705.44C1202.65 705.44 1203.56 705.253 1204.25 704.88C1204.95 704.48 1205.39 703.907 1205.57 703.16H1210.49C1210.12 705.053 1209.11 706.573 1207.45 707.72C1205.83 708.84 1203.84 709.4 1201.49 709.4ZM1205.81 696.4V695.2C1205.81 693.68 1205.45 692.52 1204.73 691.72C1204.01 690.893 1202.93 690.48 1201.49 690.48C1200.05 690.48 1198.96 690.893 1198.21 691.72C1197.47 692.547 1197.09 693.72 1197.09 695.24V696.08L1206.17 696L1205.81 696.4ZM1217.2 709V687H1221.92V691.2H1223.16L1221.68 693.76C1221.68 691.387 1222.21 689.6 1223.28 688.4C1224.34 687.2 1225.92 686.6 1228 686.6C1230.37 686.6 1232.24 687.333 1233.6 688.8C1234.96 690.267 1235.64 692.293 1235.64 694.88V696.48H1230.4V695.24C1230.4 693.827 1230.02 692.733 1229.28 691.96C1228.56 691.187 1227.56 690.8 1226.28 690.8C1224.97 690.8 1223.96 691.187 1223.24 691.96C1222.54 692.733 1222.2 693.827 1222.2 695.24V709H1217.2ZM1249.54 709.4C1247.68 709.4 1246.04 709.053 1244.62 708.36C1243.24 707.64 1242.16 706.64 1241.38 705.36C1240.61 704.053 1240.22 702.52 1240.22 700.76V695.24C1240.22 693.453 1240.61 691.92 1241.38 690.64C1242.16 689.36 1243.24 688.373 1244.62 687.68C1246.04 686.96 1247.68 686.6 1249.54 686.6C1252.32 686.6 1254.53 687.32 1256.18 688.76C1257.84 690.173 1258.7 692.107 1258.78 694.56H1253.78C1253.7 693.413 1253.29 692.533 1252.54 691.92C1251.82 691.28 1250.82 690.96 1249.54 690.96C1248.21 690.96 1247.16 691.333 1246.38 692.08C1245.61 692.8 1245.22 693.84 1245.22 695.2V700.76C1245.22 702.12 1245.61 703.173 1246.38 703.92C1247.16 704.667 1248.21 705.04 1249.54 705.04C1250.82 705.04 1251.82 704.733 1252.54 704.12C1253.29 703.48 1253.7 702.587 1253.78 701.44H1258.78C1258.7 703.893 1257.84 705.84 1256.18 707.28C1254.53 708.693 1252.32 709.4 1249.54 709.4ZM1246.5 683.2L1250.74 677.6H1256.1L1251.54 683.2H1246.5ZM1269.61 709V693.96H1263.57V689.44H1269.61V686.12C1269.61 684.2 1270.25 682.667 1271.53 681.52C1272.81 680.373 1274.5 679.8 1276.61 679.8H1283.05V684.2H1276.73C1276.09 684.2 1275.57 684.387 1275.17 684.76C1274.79 685.107 1274.61 685.587 1274.61 686.2V689.44H1283.05V693.96H1274.61V709H1269.61ZM1288.43 709V704.44H1296.11V691.52H1289.43V687H1300.91V704.44H1307.71V709H1288.43ZM1298.11 683.32C1297.1 683.32 1296.3 683.067 1295.71 682.56C1295.12 682.027 1294.83 681.32 1294.83 680.44C1294.83 679.56 1295.12 678.867 1295.71 678.36C1296.3 677.827 1297.1 677.56 1298.11 677.56C1299.12 677.56 1299.92 677.827 1300.51 678.36C1301.1 678.867 1301.39 679.56 1301.39 680.44C1301.39 681.32 1301.1 682.027 1300.51 682.56C1299.92 683.067 1299.12 683.32 1298.11 683.32ZM1312.46 709V687H1317.34V691.2H1318.7L1317.34 692.36C1317.34 690.547 1317.86 689.133 1318.9 688.12C1319.96 687.107 1321.42 686.6 1323.26 686.6C1325.42 686.6 1327.14 687.32 1328.42 688.76C1329.72 690.2 1330.38 692.133 1330.38 694.56V709H1325.38V695.08C1325.38 693.747 1325.03 692.72 1324.34 692C1323.64 691.28 1322.67 690.92 1321.42 690.92C1320.19 690.92 1319.22 691.293 1318.5 692.04C1317.8 692.787 1317.46 693.853 1317.46 695.24V709H1312.46ZM1342.92 709.4C1340.65 709.4 1338.87 708.8 1337.56 707.6C1336.25 706.4 1335.6 704.787 1335.6 702.76C1335.6 700.6 1336.32 698.933 1337.76 697.76C1339.2 696.587 1341.24 696 1343.88 696H1349.36V694.12C1349.36 693.053 1349.01 692.227 1348.32 691.64C1347.63 691.027 1346.68 690.72 1345.48 690.72C1344.39 690.72 1343.48 690.96 1342.76 691.44C1342.04 691.92 1341.61 692.573 1341.48 693.4H1336.6C1336.84 691.32 1337.77 689.667 1339.4 688.44C1341.03 687.213 1343.11 686.6 1345.64 686.6C1348.33 686.6 1350.45 687.28 1352 688.64C1353.57 689.973 1354.36 691.787 1354.36 694.08V709H1349.52V705.16H1348.72L1349.52 704.08C1349.52 705.707 1348.92 707 1347.72 707.96C1346.52 708.92 1344.92 709.4 1342.92 709.4ZM1344.56 705.64C1345.97 705.64 1347.12 705.28 1348 704.56C1348.91 703.84 1349.36 702.907 1349.36 701.76V699.08H1343.96C1342.95 699.08 1342.13 699.373 1341.52 699.96C1340.91 700.547 1340.6 701.32 1340.6 702.28C1340.6 703.32 1340.95 704.147 1341.64 704.76C1342.36 705.347 1343.33 705.64 1344.56 705.64ZM1361.34 699.8V695.2L1376.38 686.6V691.2L1361.34 699.8ZM1372.7 709C1371.26 709 1370 708.707 1368.9 708.12C1367.84 707.533 1367 706.707 1366.38 705.64C1365.77 704.547 1365.46 703.293 1365.46 701.88V684.32H1358.42V679.8H1370.46V701.88C1370.46 702.68 1370.69 703.32 1371.14 703.8C1371.62 704.253 1372.26 704.48 1373.06 704.48H1379.7V709H1372.7ZM1408.31 709L1409.63 701.72H1406.35V698.28H1410.23L1411.59 690.52H1407.63V687.08H1412.19L1413.47 679.8H1417.11L1415.79 687.08H1421.39L1422.67 679.8H1426.31L1424.99 687.08H1428.27V690.52H1424.39L1423.03 698.28H1426.99V701.72H1422.43L1421.15 709H1417.51L1418.83 701.72H1413.23L1411.95 709H1408.31ZM1413.83 698.28H1419.43L1420.79 690.52H1415.19L1413.83 698.28ZM1441.02 709.4C1439.12 709.4 1437.47 709.053 1436.06 708.36C1434.67 707.667 1433.59 706.693 1432.82 705.44C1432.04 704.187 1431.66 702.707 1431.66 701H1436.7C1436.7 702.307 1437.07 703.333 1437.82 704.08C1438.59 704.8 1439.67 705.16 1441.06 705.16C1442.44 705.16 1443.51 704.787 1444.26 704.04C1445 703.293 1445.38 702.28 1445.38 701V698.72C1445.38 697.413 1445 696.4 1444.26 695.68C1443.51 694.933 1442.44 694.56 1441.06 694.56H1437.78V690.04L1444.22 684.08H1432.98V679.8H1449.3V684.32L1441.06 691.88V690.28C1443.94 690.28 1446.22 691.04 1447.9 692.56C1449.58 694.08 1450.42 696.133 1450.42 698.72V701C1450.42 702.707 1450.03 704.187 1449.26 705.44C1448.48 706.693 1447.39 707.667 1445.98 708.36C1444.56 709.053 1442.91 709.4 1441.02 709.4Z" fill="white"/>
<path d="M1602.26 650H2003.13L2036.02 682.941V738H1634.52L1602.26 705.692V650Z" fill="#22263C"/>
<path d="M1663.42 709.4C1661.56 709.4 1659.92 709.053 1658.5 708.36C1657.12 707.64 1656.04 706.64 1655.26 705.36C1654.52 704.053 1654.14 702.52 1654.14 700.76V688.04C1654.14 686.253 1654.52 684.72 1655.26 683.44C1656.04 682.16 1657.12 681.173 1658.5 680.48C1659.92 679.76 1661.56 679.4 1663.42 679.4C1665.32 679.4 1666.94 679.76 1668.3 680.48C1669.69 681.173 1670.77 682.16 1671.54 683.44C1672.32 684.72 1672.7 686.253 1672.7 688.04H1667.66C1667.66 686.653 1667.29 685.6 1666.54 684.88C1665.82 684.16 1664.78 683.8 1663.42 683.8C1662.06 683.8 1661.01 684.16 1660.26 684.88C1659.52 685.6 1659.14 686.64 1659.14 688V700.76C1659.14 702.12 1659.52 703.173 1660.26 703.92C1661.01 704.64 1662.06 705 1663.42 705C1664.78 705 1665.82 704.64 1666.54 703.92C1667.29 703.173 1667.66 702.12 1667.66 700.76H1672.7C1672.7 702.493 1672.32 704.013 1671.54 705.32C1670.77 706.627 1669.69 707.64 1668.3 708.36C1666.94 709.053 1665.32 709.4 1663.42 709.4ZM1660.42 676.6L1664.66 671H1670.02L1665.46 676.6H1660.42ZM1679.41 709L1676.05 687H1680.21L1682.05 700.48C1682.15 701.253 1682.25 702.107 1682.33 703.04C1682.43 703.973 1682.51 704.747 1682.57 705.36C1682.65 704.747 1682.75 703.973 1682.89 703.04C1683.02 702.107 1683.14 701.253 1683.25 700.48L1685.33 687H1689.21L1691.25 700.48C1691.35 701.253 1691.47 702.12 1691.61 703.08C1691.74 704.013 1691.85 704.787 1691.93 705.4C1691.98 704.76 1692.06 703.973 1692.17 703.04C1692.3 702.08 1692.41 701.227 1692.49 700.48L1694.45 687H1698.45L1695.01 709H1689.85L1687.93 695.44C1687.82 694.693 1687.7 693.867 1687.57 692.96C1687.43 692.027 1687.33 691.267 1687.25 690.68C1687.17 691.267 1687.06 692.027 1686.93 692.96C1686.82 693.867 1686.7 694.693 1686.57 695.44L1684.57 709H1679.41ZM1702.27 709V704.44H1709.95V691.52H1703.27V687H1714.75V704.44H1721.55V709H1702.27ZM1711.95 683.32C1710.94 683.32 1710.14 683.067 1709.55 682.56C1708.96 682.027 1708.67 681.32 1708.67 680.44C1708.67 679.56 1708.96 678.867 1709.55 678.36C1710.14 677.827 1710.94 677.56 1711.95 677.56C1712.96 677.56 1713.76 677.827 1714.35 678.36C1714.94 678.867 1715.23 679.56 1715.23 680.44C1715.23 681.32 1714.94 682.027 1714.35 682.56C1713.76 683.067 1712.96 683.32 1711.95 683.32ZM1735.25 709.4C1733.39 709.4 1731.76 709.04 1730.37 708.32C1728.99 707.6 1727.91 706.6 1727.13 705.32C1726.39 704.013 1726.01 702.493 1726.01 700.76V695.24C1726.01 693.507 1726.39 692 1727.13 690.72C1727.91 689.413 1728.99 688.4 1730.37 687.68C1731.76 686.96 1733.39 686.6 1735.25 686.6C1737.09 686.6 1738.69 686.96 1740.05 687.68C1741.44 688.4 1742.51 689.413 1743.25 690.72C1744.03 692 1744.41 693.507 1744.41 695.24V699.2H1730.85V700.76C1730.85 702.307 1731.23 703.48 1731.97 704.28C1732.72 705.053 1733.83 705.44 1735.29 705.44C1736.41 705.44 1737.32 705.253 1738.01 704.88C1738.71 704.48 1739.15 703.907 1739.33 703.16H1744.25C1743.88 705.053 1742.87 706.573 1741.21 707.72C1739.59 708.84 1737.6 709.4 1735.25 709.4ZM1739.57 696.4V695.2C1739.57 693.68 1739.21 692.52 1738.49 691.72C1737.77 690.893 1736.69 690.48 1735.25 690.48C1733.81 690.48 1732.72 690.893 1731.97 691.72C1731.23 692.547 1730.85 693.72 1730.85 695.24V696.08L1739.93 696L1739.57 696.4ZM1750.96 709V687H1755.68V691.2H1756.92L1755.44 693.76C1755.44 691.387 1755.97 689.6 1757.04 688.4C1758.11 687.2 1759.68 686.6 1761.76 686.6C1764.13 686.6 1766 687.333 1767.36 688.8C1768.72 690.267 1769.4 692.293 1769.4 694.88V696.48H1764.16V695.24C1764.16 693.827 1763.79 692.733 1763.04 691.96C1762.32 691.187 1761.32 690.8 1760.04 690.8C1758.73 690.8 1757.72 691.187 1757 691.96C1756.31 692.733 1755.96 693.827 1755.96 695.24V709H1750.96ZM1783.3 709.4C1781.44 709.4 1779.8 709.053 1778.38 708.36C1777 707.64 1775.92 706.64 1775.14 705.36C1774.37 704.053 1773.98 702.52 1773.98 700.76V695.24C1773.98 693.453 1774.37 691.92 1775.14 690.64C1775.92 689.36 1777 688.373 1778.38 687.68C1779.8 686.96 1781.44 686.6 1783.3 686.6C1786.08 686.6 1788.29 687.32 1789.94 688.76C1791.6 690.173 1792.46 692.107 1792.54 694.56H1787.54C1787.46 693.413 1787.05 692.533 1786.3 691.92C1785.58 691.28 1784.58 690.96 1783.3 690.96C1781.97 690.96 1780.92 691.333 1780.14 692.08C1779.37 692.8 1778.98 693.84 1778.98 695.2V700.76C1778.98 702.12 1779.37 703.173 1780.14 703.92C1780.92 704.667 1781.97 705.04 1783.3 705.04C1784.58 705.04 1785.58 704.733 1786.3 704.12C1787.05 703.48 1787.46 702.587 1787.54 701.44H1792.54C1792.46 703.893 1791.6 705.84 1789.94 707.28C1788.29 708.693 1786.08 709.4 1783.3 709.4ZM1780.26 683.2L1784.5 677.6H1789.86L1785.3 683.2H1780.26ZM1803.37 709V693.96H1797.33V689.44H1803.37V686.12C1803.37 684.2 1804.01 682.667 1805.29 681.52C1806.57 680.373 1808.26 679.8 1810.37 679.8H1816.81V684.2H1810.49C1809.85 684.2 1809.33 684.387 1808.93 684.76C1808.55 685.107 1808.37 685.587 1808.37 686.2V689.44H1816.81V693.96H1808.37V709H1803.37ZM1822.19 709V704.44H1829.87V691.52H1823.19V687H1834.67V704.44H1841.47V709H1822.19ZM1831.87 683.32C1830.86 683.32 1830.06 683.067 1829.47 682.56C1828.89 682.027 1828.59 681.32 1828.59 680.44C1828.59 679.56 1828.89 678.867 1829.47 678.36C1830.06 677.827 1830.86 677.56 1831.87 677.56C1832.89 677.56 1833.69 677.827 1834.27 678.36C1834.86 678.867 1835.15 679.56 1835.15 680.44C1835.15 681.32 1834.86 682.027 1834.27 682.56C1833.69 683.067 1832.89 683.32 1831.87 683.32ZM1846.22 709V687H1851.1V691.2H1852.46L1851.1 692.36C1851.1 690.547 1851.62 689.133 1852.66 688.12C1853.72 687.107 1855.18 686.6 1857.02 686.6C1859.18 686.6 1860.9 687.32 1862.18 688.76C1863.48 690.2 1864.14 692.133 1864.14 694.56V709H1859.14V695.08C1859.14 693.747 1858.79 692.72 1858.1 692C1857.4 691.28 1856.43 690.92 1855.18 690.92C1853.95 690.92 1852.98 691.293 1852.26 692.04C1851.56 692.787 1851.22 693.853 1851.22 695.24V709H1846.22ZM1876.68 709.4C1874.41 709.4 1872.63 708.8 1871.32 707.6C1870.01 706.4 1869.36 704.787 1869.36 702.76C1869.36 700.6 1870.08 698.933 1871.52 697.76C1872.96 696.587 1875 696 1877.64 696H1883.12V694.12C1883.12 693.053 1882.77 692.227 1882.08 691.64C1881.39 691.027 1880.44 690.72 1879.24 690.72C1878.15 690.72 1877.24 690.96 1876.52 691.44C1875.8 691.92 1875.37 692.573 1875.24 693.4H1870.36C1870.6 691.32 1871.53 689.667 1873.16 688.44C1874.79 687.213 1876.87 686.6 1879.4 686.6C1882.09 686.6 1884.21 687.28 1885.76 688.64C1887.33 689.973 1888.12 691.787 1888.12 694.08V709H1883.28V705.16H1882.48L1883.28 704.08C1883.28 705.707 1882.68 707 1881.48 707.96C1880.28 708.92 1878.68 709.4 1876.68 709.4ZM1878.32 705.64C1879.73 705.64 1880.88 705.28 1881.76 704.56C1882.67 703.84 1883.12 702.907 1883.12 701.76V699.08H1877.72C1876.71 699.08 1875.89 699.373 1875.28 699.96C1874.67 700.547 1874.36 701.32 1874.36 702.28C1874.36 703.32 1874.71 704.147 1875.4 704.76C1876.12 705.347 1877.09 705.64 1878.32 705.64ZM1895.11 699.8V695.2L1910.15 686.6V691.2L1895.11 699.8ZM1906.47 709C1905.03 709 1903.76 708.707 1902.67 708.12C1901.6 707.533 1900.76 706.707 1900.15 705.64C1899.53 704.547 1899.23 703.293 1899.23 701.88V684.32H1892.19V679.8H1904.23V701.88C1904.23 702.68 1904.45 703.32 1904.91 703.8C1905.39 704.253 1906.03 704.48 1906.83 704.48H1913.47V709H1906.47ZM1942.07 709L1943.39 701.72H1940.11V698.28H1943.99L1945.35 690.52H1941.39V687.08H1945.95L1947.23 679.8H1950.87L1949.55 687.08H1955.15L1956.43 679.8H1960.07L1958.75 687.08H1962.03V690.52H1958.15L1956.79 698.28H1960.75V701.72H1956.19L1954.91 709H1951.27L1952.59 701.72H1946.99L1945.71 709H1942.07ZM1947.59 698.28H1953.19L1954.55 690.52H1948.95L1947.59 698.28ZM1978.66 709V703.2H1965.66V695.96L1976.9 679.8H1982.5L1970.46 697.28V698.8H1978.66V692.2H1983.66V709H1978.66Z" fill="white"/>
<path d="M378.528 551V547.128L385.824 539.8C386.848 538.755 387.606 537.816 388.096 536.984C388.587 536.131 388.832 535.256 388.832 534.36C388.832 533.272 388.534 532.429 387.936 531.832C387.339 531.213 386.528 530.904 385.504 530.904C384.374 530.904 383.488 531.235 382.848 531.896C382.208 532.536 381.888 533.432 381.888 534.584H377.888C377.91 533.091 378.23 531.811 378.848 530.744C379.488 529.656 380.384 528.813 381.536 528.216C382.688 527.619 384.032 527.32 385.568 527.32C387.04 527.32 388.32 527.597 389.408 528.152C390.496 528.707 391.339 529.485 391.936 530.488C392.534 531.491 392.832 532.685 392.832 534.072C392.832 535.501 392.459 536.899 391.712 538.264C390.987 539.608 389.814 541.059 388.192 542.616L383.328 547.384H393.12V551H378.528ZM422.471 551.32C420.722 551.32 419.303 550.712 418.215 549.496C417.149 548.28 416.615 546.648 416.615 544.6V539.832C416.615 537.763 417.149 536.12 418.215 534.904C419.282 533.688 420.701 533.08 422.471 533.08C423.922 533.08 425.074 533.496 425.927 534.328C426.781 535.139 427.207 536.259 427.207 537.688L426.311 536.76H427.239L427.111 532.568V527.64H431.111V551H427.207V547.64H426.311L427.207 546.712C427.207 548.141 426.781 549.272 425.927 550.104C425.074 550.915 423.922 551.32 422.471 551.32ZM423.879 547.864C424.903 547.864 425.693 547.565 426.247 546.968C426.823 546.349 427.111 545.496 427.111 544.408V539.992C427.111 538.904 426.823 538.061 426.247 537.464C425.693 536.845 424.903 536.536 423.879 536.536C422.855 536.536 422.055 536.835 421.479 537.432C420.903 538.029 420.615 538.883 420.615 539.992V544.408C420.615 545.517 420.903 546.371 421.479 546.968C422.055 547.565 422.855 547.864 423.879 547.864ZM436.571 551V533.4H440.347V536.76H441.339L440.155 538.808C440.155 536.909 440.582 535.48 441.435 534.52C442.288 533.56 443.547 533.08 445.211 533.08C447.11 533.08 448.603 533.667 449.691 534.84C450.779 536.013 451.323 537.635 451.323 539.704V540.984H447.131V539.992C447.131 538.861 446.832 537.987 446.235 537.368C445.659 536.749 444.859 536.44 443.835 536.44C442.79 536.44 441.979 536.749 441.403 537.368C440.848 537.987 440.571 538.861 440.571 539.992V551H436.571ZM462.35 551.32C460.11 551.32 458.35 550.701 457.07 549.464C455.79 548.205 455.15 546.499 455.15 544.344V533.4H459.15V544.312C459.15 545.443 459.428 546.317 459.982 546.936C460.537 547.533 461.326 547.832 462.35 547.832C463.353 547.832 464.132 547.533 464.686 546.936C465.262 546.317 465.55 545.443 465.55 544.312V533.4H469.55V544.344C469.55 546.499 468.9 548.205 467.598 549.464C466.297 550.701 464.548 551.32 462.35 551.32ZM474.434 551V547.384L483.618 536.92H474.722V533.4H488.29V537.016L479.01 547.48H488.642V551H474.434ZM481.538 530.456C480.727 530.456 480.087 530.253 479.618 529.848C479.149 529.421 478.914 528.856 478.914 528.152C478.914 527.448 479.149 526.893 479.618 526.488C480.087 526.061 480.727 525.848 481.538 525.848C482.349 525.848 482.989 526.061 483.458 526.488C483.927 526.893 484.162 527.448 484.162 528.152C484.162 528.856 483.927 529.421 483.458 529.848C482.989 530.253 482.349 530.456 481.538 530.456ZM496.437 556.76L498.901 550.04L492.341 533.4H496.725L499.989 542.392C500.16 542.883 500.331 543.48 500.501 544.184C500.672 544.867 500.8 545.432 500.885 545.88C500.992 545.432 501.131 544.867 501.301 544.184C501.472 543.48 501.643 542.883 501.813 542.392L504.885 533.4H509.109L500.629 556.76H496.437ZM512.777 551V533.4H516.681V536.76H517.769L516.681 537.688C516.681 536.237 517.097 535.107 517.929 534.296C518.782 533.485 519.945 533.08 521.417 533.08C523.145 533.08 524.521 533.656 525.545 534.808C526.59 535.96 527.113 537.507 527.113 539.448V551H523.113V539.864C523.113 538.797 522.836 537.976 522.281 537.4C521.726 536.824 520.948 536.536 519.945 536.536C518.964 536.536 518.185 536.835 517.609 537.432C517.054 538.029 516.777 538.883 516.777 539.992V551H512.777ZM534.812 556.76L537.276 550.04L530.716 533.4H535.1L538.364 542.392C538.535 542.883 538.706 543.48 538.876 544.184C539.047 544.867 539.175 545.432 539.26 545.88C539.367 545.432 539.506 544.867 539.676 544.184C539.847 543.48 540.018 542.883 540.188 542.392L543.26 533.4H547.484L539.004 556.76H534.812Z" fill="white"/>
<path d="M1489.53 551V547.128L1496.82 539.8C1497.85 538.755 1498.61 537.816 1499.1 536.984C1499.59 536.131 1499.83 535.256 1499.83 534.36C1499.83 533.272 1499.53 532.429 1498.94 531.832C1498.34 531.213 1497.53 530.904 1496.5 530.904C1495.37 530.904 1494.49 531.235 1493.85 531.896C1493.21 532.536 1492.89 533.432 1492.89 534.584H1488.89C1488.91 533.091 1489.23 531.811 1489.85 530.744C1490.49 529.656 1491.38 528.813 1492.54 528.216C1493.69 527.619 1495.03 527.32 1496.57 527.32C1498.04 527.32 1499.32 527.597 1500.41 528.152C1501.5 528.707 1502.34 529.485 1502.94 530.488C1503.53 531.491 1503.83 532.685 1503.83 534.072C1503.83 535.501 1503.46 536.899 1502.71 538.264C1501.99 539.608 1500.81 541.059 1499.19 542.616L1494.33 547.384H1504.12V551H1489.53ZM1533.47 551.32C1531.72 551.32 1530.3 550.712 1529.22 549.496C1528.15 548.28 1527.62 546.648 1527.62 544.6V539.832C1527.62 537.763 1528.15 536.12 1529.22 534.904C1530.28 533.688 1531.7 533.08 1533.47 533.08C1534.92 533.08 1536.07 533.496 1536.93 534.328C1537.78 535.139 1538.21 536.259 1538.21 537.688L1537.31 536.76H1538.24L1538.11 532.568V527.64H1542.11V551H1538.21V547.64H1537.31L1538.21 546.712C1538.21 548.141 1537.78 549.272 1536.93 550.104C1536.07 550.915 1534.92 551.32 1533.47 551.32ZM1534.88 547.864C1535.9 547.864 1536.69 547.565 1537.25 546.968C1537.82 546.349 1538.11 545.496 1538.11 544.408V539.992C1538.11 538.904 1537.82 538.061 1537.25 537.464C1536.69 536.845 1535.9 536.536 1534.88 536.536C1533.86 536.536 1533.06 536.835 1532.48 537.432C1531.9 538.029 1531.62 538.883 1531.62 539.992V544.408C1531.62 545.517 1531.9 546.371 1532.48 546.968C1533.06 547.565 1533.86 547.864 1534.88 547.864ZM1547.57 551V533.4H1551.35V536.76H1552.34L1551.15 538.808C1551.15 536.909 1551.58 535.48 1552.43 534.52C1553.29 533.56 1554.55 533.08 1556.21 533.08C1558.11 533.08 1559.6 533.667 1560.69 534.84C1561.78 536.013 1562.32 537.635 1562.32 539.704V540.984H1558.13V539.992C1558.13 538.861 1557.83 537.987 1557.23 537.368C1556.66 536.749 1555.86 536.44 1554.83 536.44C1553.79 536.44 1552.98 536.749 1552.4 537.368C1551.85 537.987 1551.57 538.861 1551.57 539.992V551H1547.57ZM1573.35 551.32C1571.11 551.32 1569.35 550.701 1568.07 549.464C1566.79 548.205 1566.15 546.499 1566.15 544.344V533.4H1570.15V544.312C1570.15 545.443 1570.43 546.317 1570.98 546.936C1571.54 547.533 1572.33 547.832 1573.35 547.832C1574.35 547.832 1575.13 547.533 1575.69 546.936C1576.26 546.317 1576.55 545.443 1576.55 544.312V533.4H1580.55V544.344C1580.55 546.499 1579.9 548.205 1578.6 549.464C1577.3 550.701 1575.55 551.32 1573.35 551.32ZM1585.43 551V547.384L1594.62 536.92H1585.72V533.4H1599.29V537.016L1590.01 547.48H1599.64V551H1585.43ZM1592.54 530.456C1591.73 530.456 1591.09 530.253 1590.62 529.848C1590.15 529.421 1589.91 528.856 1589.91 528.152C1589.91 527.448 1590.15 526.893 1590.62 526.488C1591.09 526.061 1591.73 525.848 1592.54 525.848C1593.35 525.848 1593.99 526.061 1594.46 526.488C1594.93 526.893 1595.16 527.448 1595.16 528.152C1595.16 528.856 1594.93 529.421 1594.46 529.848C1593.99 530.253 1593.35 530.456 1592.54 530.456ZM1607.44 556.76L1609.9 550.04L1603.34 533.4H1607.73L1610.99 542.392C1611.16 542.883 1611.33 543.48 1611.5 544.184C1611.67 544.867 1611.8 545.432 1611.89 545.88C1611.99 545.432 1612.13 544.867 1612.3 544.184C1612.47 543.48 1612.64 542.883 1612.81 542.392L1615.89 533.4H1620.11L1611.63 556.76H1607.44ZM1623.78 551V533.4H1627.68V536.76H1628.77L1627.68 537.688C1627.68 536.237 1628.1 535.107 1628.93 534.296C1629.78 533.485 1630.94 533.08 1632.42 533.08C1634.14 533.08 1635.52 533.656 1636.54 534.808C1637.59 535.96 1638.11 537.507 1638.11 539.448V551H1634.11V539.864C1634.11 538.797 1633.84 537.976 1633.28 537.4C1632.73 536.824 1631.95 536.536 1630.94 536.536C1629.96 536.536 1629.18 536.835 1628.61 537.432C1628.05 538.029 1627.78 538.883 1627.78 539.992V551H1623.78ZM1645.81 556.76L1648.28 550.04L1641.72 533.4H1646.1L1649.36 542.392C1649.54 542.883 1649.71 543.48 1649.88 544.184C1650.05 544.867 1650.18 545.432 1650.26 545.88C1650.37 545.432 1650.51 544.867 1650.68 544.184C1650.85 543.48 1651.02 542.883 1651.19 542.392L1654.26 533.4H1658.48L1650 556.76H1645.81Z" fill="white"/>
<path d="M1089.53 297V293.128L1096.82 285.8C1097.85 284.755 1098.61 283.816 1099.1 282.984C1099.59 282.131 1099.83 281.256 1099.83 280.36C1099.83 279.272 1099.53 278.429 1098.94 277.832C1098.34 277.213 1097.53 276.904 1096.5 276.904C1095.37 276.904 1094.49 277.235 1093.85 277.896C1093.21 278.536 1092.89 279.432 1092.89 280.584H1088.89C1088.91 279.091 1089.23 277.811 1089.85 276.744C1090.49 275.656 1091.38 274.813 1092.54 274.216C1093.69 273.619 1095.03 273.32 1096.57 273.32C1098.04 273.32 1099.32 273.597 1100.41 274.152C1101.5 274.707 1102.34 275.485 1102.94 276.488C1103.53 277.491 1103.83 278.685 1103.83 280.072C1103.83 281.501 1103.46 282.899 1102.71 284.264C1101.99 285.608 1100.81 287.059 1099.19 288.616L1094.33 293.384H1104.12V297H1089.53ZM1133.47 297.32C1131.72 297.32 1130.3 296.712 1129.22 295.496C1128.15 294.28 1127.62 292.648 1127.62 290.6V285.832C1127.62 283.763 1128.15 282.12 1129.22 280.904C1130.28 279.688 1131.7 279.08 1133.47 279.08C1134.92 279.08 1136.07 279.496 1136.93 280.328C1137.78 281.139 1138.21 282.259 1138.21 283.688L1137.31 282.76H1138.24L1138.11 278.568V273.64H1142.11V297H1138.21V293.64H1137.31L1138.21 292.712C1138.21 294.141 1137.78 295.272 1136.93 296.104C1136.07 296.915 1134.92 297.32 1133.47 297.32ZM1134.88 293.864C1135.9 293.864 1136.69 293.565 1137.25 292.968C1137.82 292.349 1138.11 291.496 1138.11 290.408V285.992C1138.11 284.904 1137.82 284.061 1137.25 283.464C1136.69 282.845 1135.9 282.536 1134.88 282.536C1133.86 282.536 1133.06 282.835 1132.48 283.432C1131.9 284.029 1131.62 284.883 1131.62 285.992V290.408C1131.62 291.517 1131.9 292.371 1132.48 292.968C1133.06 293.565 1133.86 293.864 1134.88 293.864ZM1147.57 297V279.4H1151.35V282.76H1152.34L1151.15 284.808C1151.15 282.909 1151.58 281.48 1152.43 280.52C1153.29 279.56 1154.55 279.08 1156.21 279.08C1158.11 279.08 1159.6 279.667 1160.69 280.84C1161.78 282.013 1162.32 283.635 1162.32 285.704V286.984H1158.13V285.992C1158.13 284.861 1157.83 283.987 1157.23 283.368C1156.66 282.749 1155.86 282.44 1154.83 282.44C1153.79 282.44 1152.98 282.749 1152.4 283.368C1151.85 283.987 1151.57 284.861 1151.57 285.992V297H1147.57ZM1173.35 297.32C1171.11 297.32 1169.35 296.701 1168.07 295.464C1166.79 294.205 1166.15 292.499 1166.15 290.344V279.4H1170.15V290.312C1170.15 291.443 1170.43 292.317 1170.98 292.936C1171.54 293.533 1172.33 293.832 1173.35 293.832C1174.35 293.832 1175.13 293.533 1175.69 292.936C1176.26 292.317 1176.55 291.443 1176.55 290.312V279.4H1180.55V290.344C1180.55 292.499 1179.9 294.205 1178.6 295.464C1177.3 296.701 1175.55 297.32 1173.35 297.32ZM1185.43 297V293.384L1194.62 282.92H1185.72V279.4H1199.29V283.016L1190.01 293.48H1199.64V297H1185.43ZM1192.54 276.456C1191.73 276.456 1191.09 276.253 1190.62 275.848C1190.15 275.421 1189.91 274.856 1189.91 274.152C1189.91 273.448 1190.15 272.893 1190.62 272.488C1191.09 272.061 1191.73 271.848 1192.54 271.848C1193.35 271.848 1193.99 272.061 1194.46 272.488C1194.93 272.893 1195.16 273.448 1195.16 274.152C1195.16 274.856 1194.93 275.421 1194.46 275.848C1193.99 276.253 1193.35 276.456 1192.54 276.456ZM1207.44 302.76L1209.9 296.04L1203.34 279.4H1207.73L1210.99 288.392C1211.16 288.883 1211.33 289.48 1211.5 290.184C1211.67 290.867 1211.8 291.432 1211.89 291.88C1211.99 291.432 1212.13 290.867 1212.3 290.184C1212.47 289.48 1212.64 288.883 1212.81 288.392L1215.89 279.4H1220.11L1211.63 302.76H1207.44ZM1223.78 297V279.4H1227.68V282.76H1228.77L1227.68 283.688C1227.68 282.237 1228.1 281.107 1228.93 280.296C1229.78 279.485 1230.94 279.08 1232.42 279.08C1234.14 279.08 1235.52 279.656 1236.54 280.808C1237.59 281.96 1238.11 283.507 1238.11 285.448V297H1234.11V285.864C1234.11 284.797 1233.84 283.976 1233.28 283.4C1232.73 282.824 1231.95 282.536 1230.94 282.536C1229.96 282.536 1229.18 282.835 1228.61 283.432C1228.05 284.029 1227.78 284.883 1227.78 285.992V297H1223.78ZM1245.81 302.76L1248.28 296.04L1241.72 279.4H1246.1L1249.36 288.392C1249.54 288.883 1249.71 289.48 1249.88 290.184C1250.05 290.867 1250.18 291.432 1250.26 291.88C1250.37 291.432 1250.51 290.867 1250.68 290.184C1250.85 289.48 1251.02 288.883 1251.19 288.392L1254.26 279.4H1258.48L1250 302.76H1245.81Z" fill="white"/>
<path d="M779.528 297V293.128L786.824 285.8C787.848 284.755 788.606 283.816 789.096 282.984C789.587 282.131 789.832 281.256 789.832 280.36C789.832 279.272 789.534 278.429 788.936 277.832C788.339 277.213 787.528 276.904 786.504 276.904C785.374 276.904 784.488 277.235 783.848 277.896C783.208 278.536 782.888 279.432 782.888 280.584H778.888C778.91 279.091 779.23 277.811 779.848 276.744C780.488 275.656 781.384 274.813 782.536 274.216C783.688 273.619 785.032 273.32 786.568 273.32C788.04 273.32 789.32 273.597 790.408 274.152C791.496 274.707 792.339 275.485 792.936 276.488C793.534 277.491 793.832 278.685 793.832 280.072C793.832 281.501 793.459 282.899 792.712 284.264C791.987 285.608 790.814 287.059 789.192 288.616L784.328 293.384H794.12V297H779.528ZM823.471 297.32C821.722 297.32 820.303 296.712 819.215 295.496C818.149 294.28 817.615 292.648 817.615 290.6V285.832C817.615 283.763 818.149 282.12 819.215 280.904C820.282 279.688 821.701 279.08 823.471 279.08C824.922 279.08 826.074 279.496 826.927 280.328C827.781 281.139 828.207 282.259 828.207 283.688L827.311 282.76H828.239L828.111 278.568V273.64H832.111V297H828.207V293.64H827.311L828.207 292.712C828.207 294.141 827.781 295.272 826.927 296.104C826.074 296.915 824.922 297.32 823.471 297.32ZM824.879 293.864C825.903 293.864 826.693 293.565 827.247 292.968C827.823 292.349 828.111 291.496 828.111 290.408V285.992C828.111 284.904 827.823 284.061 827.247 283.464C826.693 282.845 825.903 282.536 824.879 282.536C823.855 282.536 823.055 282.835 822.479 283.432C821.903 284.029 821.615 284.883 821.615 285.992V290.408C821.615 291.517 821.903 292.371 822.479 292.968C823.055 293.565 823.855 293.864 824.879 293.864ZM837.571 297V279.4H841.347V282.76H842.339L841.155 284.808C841.155 282.909 841.582 281.48 842.435 280.52C843.288 279.56 844.547 279.08 846.211 279.08C848.11 279.08 849.603 279.667 850.691 280.84C851.779 282.013 852.323 283.635 852.323 285.704V286.984H848.131V285.992C848.131 284.861 847.832 283.987 847.235 283.368C846.659 282.749 845.859 282.44 844.835 282.44C843.79 282.44 842.979 282.749 842.403 283.368C841.848 283.987 841.571 284.861 841.571 285.992V297H837.571ZM863.35 297.32C861.11 297.32 859.35 296.701 858.07 295.464C856.79 294.205 856.15 292.499 856.15 290.344V279.4H860.15V290.312C860.15 291.443 860.428 292.317 860.982 292.936C861.537 293.533 862.326 293.832 863.35 293.832C864.353 293.832 865.132 293.533 865.686 292.936C866.262 292.317 866.55 291.443 866.55 290.312V279.4H870.55V290.344C870.55 292.499 869.9 294.205 868.598 295.464C867.297 296.701 865.548 297.32 863.35 297.32ZM875.434 297V293.384L884.618 282.92H875.722V279.4H889.29V283.016L880.01 293.48H889.642V297H875.434ZM882.538 276.456C881.727 276.456 881.087 276.253 880.618 275.848C880.149 275.421 879.914 274.856 879.914 274.152C879.914 273.448 880.149 272.893 880.618 272.488C881.087 272.061 881.727 271.848 882.538 271.848C883.349 271.848 883.989 272.061 884.458 272.488C884.927 272.893 885.162 273.448 885.162 274.152C885.162 274.856 884.927 275.421 884.458 275.848C883.989 276.253 883.349 276.456 882.538 276.456ZM897.437 302.76L899.901 296.04L893.341 279.4H897.725L900.989 288.392C901.16 288.883 901.331 289.48 901.501 290.184C901.672 290.867 901.8 291.432 901.885 291.88C901.992 291.432 902.131 290.867 902.301 290.184C902.472 289.48 902.643 288.883 902.813 288.392L905.885 279.4H910.109L901.629 302.76H897.437ZM913.777 297V279.4H917.681V282.76H918.769L917.681 283.688C917.681 282.237 918.097 281.107 918.929 280.296C919.782 279.485 920.945 279.08 922.417 279.08C924.145 279.08 925.521 279.656 926.545 280.808C927.59 281.96 928.113 283.507 928.113 285.448V297H924.113V285.864C924.113 284.797 923.836 283.976 923.281 283.4C922.726 282.824 921.948 282.536 920.945 282.536C919.964 282.536 919.185 282.835 918.609 283.432C918.054 284.029 917.777 284.883 917.777 285.992V297H913.777ZM935.812 302.76L938.276 296.04L931.716 279.4H936.1L939.364 288.392C939.535 288.883 939.706 289.48 939.876 290.184C940.047 290.867 940.175 291.432 940.26 291.88C940.367 291.432 940.506 290.867 940.676 290.184C940.847 289.48 941.018 288.883 941.188 288.392L944.26 279.4H948.484L940.004 302.76H935.812Z" fill="white"/>
<path d="M814.528 579V575.128L821.824 567.8C822.848 566.755 823.606 565.816 824.096 564.984C824.587 564.131 824.832 563.256 824.832 562.36C824.832 561.272 824.534 560.429 823.936 559.832C823.339 559.213 822.528 558.904 821.504 558.904C820.374 558.904 819.488 559.235 818.848 559.896C818.208 560.536 817.888 561.432 817.888 562.584H813.888C813.91 561.091 814.23 559.811 814.848 558.744C815.488 557.656 816.384 556.813 817.536 556.216C818.688 555.619 820.032 555.32 821.568 555.32C823.04 555.32 824.32 555.597 825.408 556.152C826.496 556.707 827.339 557.485 827.936 558.488C828.534 559.491 828.832 560.685 828.832 562.072C828.832 563.501 828.459 564.899 827.712 566.264C826.987 567.608 825.814 569.059 824.192 570.616L819.328 575.384H829.12V579H814.528ZM858.471 579.32C856.722 579.32 855.303 578.712 854.215 577.496C853.149 576.28 852.615 574.648 852.615 572.6V567.832C852.615 565.763 853.149 564.12 854.215 562.904C855.282 561.688 856.701 561.08 858.471 561.08C859.922 561.08 861.074 561.496 861.927 562.328C862.781 563.139 863.207 564.259 863.207 565.688L862.311 564.76H863.239L863.111 560.568V555.64H867.111V579H863.207V575.64H862.311L863.207 574.712C863.207 576.141 862.781 577.272 861.927 578.104C861.074 578.915 859.922 579.32 858.471 579.32ZM859.879 575.864C860.903 575.864 861.693 575.565 862.247 574.968C862.823 574.349 863.111 573.496 863.111 572.408V567.992C863.111 566.904 862.823 566.061 862.247 565.464C861.693 564.845 860.903 564.536 859.879 564.536C858.855 564.536 858.055 564.835 857.479 565.432C856.903 566.029 856.615 566.883 856.615 567.992V572.408C856.615 573.517 856.903 574.371 857.479 574.968C858.055 575.565 858.855 575.864 859.879 575.864ZM872.571 579V561.4H876.347V564.76H877.339L876.155 566.808C876.155 564.909 876.582 563.48 877.435 562.52C878.288 561.56 879.547 561.08 881.211 561.08C883.11 561.08 884.603 561.667 885.691 562.84C886.779 564.013 887.323 565.635 887.323 567.704V568.984H883.131V567.992C883.131 566.861 882.832 565.987 882.235 565.368C881.659 564.749 880.859 564.44 879.835 564.44C878.79 564.44 877.979 564.749 877.403 565.368C876.848 565.987 876.571 566.861 876.571 567.992V579H872.571ZM898.35 579.32C896.11 579.32 894.35 578.701 893.07 577.464C891.79 576.205 891.15 574.499 891.15 572.344V561.4H895.15V572.312C895.15 573.443 895.428 574.317 895.982 574.936C896.537 575.533 897.326 575.832 898.35 575.832C899.353 575.832 900.132 575.533 900.686 574.936C901.262 574.317 901.55 573.443 901.55 572.312V561.4H905.55V572.344C905.55 574.499 904.9 576.205 903.598 577.464C902.297 578.701 900.548 579.32 898.35 579.32ZM910.434 579V575.384L919.618 564.92H910.722V561.4H924.29V565.016L915.01 575.48H924.642V579H910.434ZM917.538 558.456C916.727 558.456 916.087 558.253 915.618 557.848C915.149 557.421 914.914 556.856 914.914 556.152C914.914 555.448 915.149 554.893 915.618 554.488C916.087 554.061 916.727 553.848 917.538 553.848C918.349 553.848 918.989 554.061 919.458 554.488C919.927 554.893 920.162 555.448 920.162 556.152C920.162 556.856 919.927 557.421 919.458 557.848C918.989 558.253 918.349 558.456 917.538 558.456ZM932.437 584.76L934.901 578.04L928.341 561.4H932.725L935.989 570.392C936.16 570.883 936.331 571.48 936.501 572.184C936.672 572.867 936.8 573.432 936.885 573.88C936.992 573.432 937.131 572.867 937.301 572.184C937.472 571.48 937.643 570.883 937.813 570.392L940.885 561.4H945.109L936.629 584.76H932.437ZM948.777 579V561.4H952.681V564.76H953.769L952.681 565.688C952.681 564.237 953.097 563.107 953.929 562.296C954.782 561.485 955.945 561.08 957.417 561.08C959.145 561.08 960.521 561.656 961.545 562.808C962.59 563.96 963.113 565.507 963.113 567.448V579H959.113V567.864C959.113 566.797 958.836 565.976 958.281 565.4C957.726 564.824 956.948 564.536 955.945 564.536C954.964 564.536 954.185 564.835 953.609 565.432C953.054 566.029 952.777 566.883 952.777 567.992V579H948.777ZM970.812 584.76L973.276 578.04L966.716 561.4H971.1L974.364 570.392C974.535 570.883 974.706 571.48 974.876 572.184C975.047 572.867 975.175 573.432 975.26 573.88C975.367 573.432 975.506 572.867 975.676 572.184C975.847 571.48 976.018 570.883 976.188 570.392L979.26 561.4H983.484L975.004 584.76H970.812Z" fill="white"/>
<path d="M1054.53 579V575.128L1061.82 567.8C1062.85 566.755 1063.61 565.816 1064.1 564.984C1064.59 564.131 1064.83 563.256 1064.83 562.36C1064.83 561.272 1064.53 560.429 1063.94 559.832C1063.34 559.213 1062.53 558.904 1061.5 558.904C1060.37 558.904 1059.49 559.235 1058.85 559.896C1058.21 560.536 1057.89 561.432 1057.89 562.584H1053.89C1053.91 561.091 1054.23 559.811 1054.85 558.744C1055.49 557.656 1056.38 556.813 1057.54 556.216C1058.69 555.619 1060.03 555.32 1061.57 555.32C1063.04 555.32 1064.32 555.597 1065.41 556.152C1066.5 556.707 1067.34 557.485 1067.94 558.488C1068.53 559.491 1068.83 560.685 1068.83 562.072C1068.83 563.501 1068.46 564.899 1067.71 566.264C1066.99 567.608 1065.81 569.059 1064.19 570.616L1059.33 575.384H1069.12V579H1054.53ZM1098.47 579.32C1096.72 579.32 1095.3 578.712 1094.22 577.496C1093.15 576.28 1092.62 574.648 1092.62 572.6V567.832C1092.62 565.763 1093.15 564.12 1094.22 562.904C1095.28 561.688 1096.7 561.08 1098.47 561.08C1099.92 561.08 1101.07 561.496 1101.93 562.328C1102.78 563.139 1103.21 564.259 1103.21 565.688L1102.31 564.76H1103.24L1103.11 560.568V555.64H1107.11V579H1103.21V575.64H1102.31L1103.21 574.712C1103.21 576.141 1102.78 577.272 1101.93 578.104C1101.07 578.915 1099.92 579.32 1098.47 579.32ZM1099.88 575.864C1100.9 575.864 1101.69 575.565 1102.25 574.968C1102.82 574.349 1103.11 573.496 1103.11 572.408V567.992C1103.11 566.904 1102.82 566.061 1102.25 565.464C1101.69 564.845 1100.9 564.536 1099.88 564.536C1098.86 564.536 1098.06 564.835 1097.48 565.432C1096.9 566.029 1096.62 566.883 1096.62 567.992V572.408C1096.62 573.517 1096.9 574.371 1097.48 574.968C1098.06 575.565 1098.86 575.864 1099.88 575.864ZM1112.57 579V561.4H1116.35V564.76H1117.34L1116.15 566.808C1116.15 564.909 1116.58 563.48 1117.43 562.52C1118.29 561.56 1119.55 561.08 1121.21 561.08C1123.11 561.08 1124.6 561.667 1125.69 562.84C1126.78 564.013 1127.32 565.635 1127.32 567.704V568.984H1123.13V567.992C1123.13 566.861 1122.83 565.987 1122.23 565.368C1121.66 564.749 1120.86 564.44 1119.83 564.44C1118.79 564.44 1117.98 564.749 1117.4 565.368C1116.85 565.987 1116.57 566.861 1116.57 567.992V579H1112.57ZM1138.35 579.32C1136.11 579.32 1134.35 578.701 1133.07 577.464C1131.79 576.205 1131.15 574.499 1131.15 572.344V561.4H1135.15V572.312C1135.15 573.443 1135.43 574.317 1135.98 574.936C1136.54 575.533 1137.33 575.832 1138.35 575.832C1139.35 575.832 1140.13 575.533 1140.69 574.936C1141.26 574.317 1141.55 573.443 1141.55 572.312V561.4H1145.55V572.344C1145.55 574.499 1144.9 576.205 1143.6 577.464C1142.3 578.701 1140.55 579.32 1138.35 579.32ZM1150.43 579V575.384L1159.62 564.92H1150.72V561.4H1164.29V565.016L1155.01 575.48H1164.64V579H1150.43ZM1157.54 558.456C1156.73 558.456 1156.09 558.253 1155.62 557.848C1155.15 557.421 1154.91 556.856 1154.91 556.152C1154.91 555.448 1155.15 554.893 1155.62 554.488C1156.09 554.061 1156.73 553.848 1157.54 553.848C1158.35 553.848 1158.99 554.061 1159.46 554.488C1159.93 554.893 1160.16 555.448 1160.16 556.152C1160.16 556.856 1159.93 557.421 1159.46 557.848C1158.99 558.253 1158.35 558.456 1157.54 558.456ZM1172.44 584.76L1174.9 578.04L1168.34 561.4H1172.73L1175.99 570.392C1176.16 570.883 1176.33 571.48 1176.5 572.184C1176.67 572.867 1176.8 573.432 1176.89 573.88C1176.99 573.432 1177.13 572.867 1177.3 572.184C1177.47 571.48 1177.64 570.883 1177.81 570.392L1180.89 561.4H1185.11L1176.63 584.76H1172.44ZM1188.78 579V561.4H1192.68V564.76H1193.77L1192.68 565.688C1192.68 564.237 1193.1 563.107 1193.93 562.296C1194.78 561.485 1195.94 561.08 1197.42 561.08C1199.14 561.08 1200.52 561.656 1201.54 562.808C1202.59 563.96 1203.11 565.507 1203.11 567.448V579H1199.11V567.864C1199.11 566.797 1198.84 565.976 1198.28 565.4C1197.73 564.824 1196.95 564.536 1195.94 564.536C1194.96 564.536 1194.18 564.835 1193.61 565.432C1193.05 566.029 1192.78 566.883 1192.78 567.992V579H1188.78ZM1210.81 584.76L1213.28 578.04L1206.72 561.4H1211.1L1214.36 570.392C1214.54 570.883 1214.71 571.48 1214.88 572.184C1215.05 572.867 1215.18 573.432 1215.26 573.88C1215.37 573.432 1215.51 572.867 1215.68 572.184C1215.85 571.48 1216.02 570.883 1216.19 570.392L1219.26 561.4H1223.48L1215 584.76H1210.81Z" fill="white"/>
</svg>
