<svg width="738" height="387" viewBox="0 0 738 387" fill="none" xmlns="http://www.w3.org/2000/svg">
<path d="M168.377 298.694L18.5448 223.367C7.20511 217.666 0.0488281 206.059 0.0488281 193.367C0.0488281 180.655 7.22742 169.033 18.5944 163.342L168.377 88.3501V140.588L70.1057 190.062C67.5496 191.349 67.5496 194.998 70.1057 196.285L168.377 245.759V298.694Z" fill="white"/>
<path d="M224.814 181.267L412.718 4.85028C424.775 -6.46958 444.342 3.81051 441.861 20.1615L424.078 137.365C423.594 140.552 425.361 143.656 428.349 144.867L507.455 176.937C519.231 181.711 522.097 197.08 512.833 205.777L324.929 382.193C312.872 393.513 293.306 383.233 295.787 366.882L313.569 249.679C314.053 246.491 312.286 243.388 309.299 242.177L230.192 210.107C218.416 205.333 215.55 189.964 224.814 181.267Z" fill="#FFD200"/>
<path d="M569.27 298.694V245.759L667.521 196.295C670.081 195.007 670.076 191.35 667.512 190.068L569.27 140.936V88.3501L719.445 163.359C730.816 169.039 738 180.657 738 193.367C738 206.057 730.838 217.66 719.495 223.35L569.27 298.694Z" fill="white"/>
</svg>
