<svg width="289" height="58" viewBox="0 0 289 58" fill="none" xmlns="http://www.w3.org/2000/svg">
<path d="M237.728 34.6652C238.058 34.6652 238.343 34.8002 238.583 35.0702C238.823 35.3402 238.943 35.6852 238.943 36.1052C238.943 36.8552 238.418 37.5452 237.368 38.1752C236.288 38.8052 235.148 39.2852 233.948 39.6152C232.748 39.9152 231.578 40.0652 230.438 40.0652C227.048 40.0652 224.363 39.0602 222.383 37.0502C220.433 35.0402 219.458 32.2652 219.458 28.7252C219.458 26.4752 219.893 24.4952 220.763 22.7852C221.633 21.0452 222.848 19.6952 224.408 18.7352C225.998 17.7752 227.798 17.2952 229.808 17.2952C232.658 17.2952 234.923 18.2252 236.603 20.0852C238.283 21.9452 239.123 24.4652 239.123 27.6452C239.123 28.2452 239.003 28.6802 238.763 28.9502C238.523 29.2202 238.133 29.3552 237.593 29.3552H223.103C223.373 34.5152 225.818 37.0952 230.438 37.0952C231.608 37.0952 232.613 36.9452 233.453 36.6452C234.293 36.3152 235.193 35.8802 236.153 35.3402C236.933 34.8902 237.458 34.6652 237.728 34.6652ZM229.853 20.1302C227.933 20.1302 226.388 20.7302 225.218 21.9302C224.078 23.1302 223.403 24.8252 223.193 27.0152H235.928C235.868 24.7952 235.313 23.1002 234.263 21.9302C233.213 20.7302 231.743 20.1302 229.853 20.1302Z" fill="#DE2F21"/>
<path d="M261.374 18.5102C261.704 17.7902 262.229 17.4302 262.949 17.4302C263.399 17.4302 263.804 17.5802 264.164 17.8802C264.524 18.1802 264.704 18.5552 264.704 19.0052C264.704 19.2752 264.644 19.5152 264.524 19.7252L251.879 46.9952C251.729 47.3252 251.504 47.5802 251.204 47.7602C250.934 47.9402 250.649 48.0302 250.349 48.0302C249.899 48.0302 249.494 47.8802 249.134 47.5802C248.804 47.3102 248.639 46.9502 248.639 46.5002C248.639 46.2602 248.699 46.0202 248.819 45.7802L251.969 38.9852L243.059 19.7252C242.939 19.5152 242.879 19.2902 242.879 19.0502C242.879 18.6002 243.074 18.2102 243.464 17.8802C243.884 17.5502 244.334 17.3852 244.814 17.3852C245.114 17.3852 245.399 17.4752 245.669 17.6552C245.969 17.8352 246.194 18.0902 246.344 18.4202L253.859 35.2952L261.374 18.5102Z" fill="#DE2F21"/>
<path d="M286.746 34.6652C287.076 34.6652 287.361 34.8002 287.601 35.0702C287.841 35.3402 287.961 35.6852 287.961 36.1052C287.961 36.8552 287.436 37.5452 286.386 38.1752C285.306 38.8052 284.166 39.2852 282.966 39.6152C281.766 39.9152 280.596 40.0652 279.456 40.0652C276.066 40.0652 273.381 39.0602 271.401 37.0502C269.451 35.0402 268.476 32.2652 268.476 28.7252C268.476 26.4752 268.911 24.4952 269.781 22.7852C270.651 21.0452 271.866 19.6952 273.426 18.7352C275.016 17.7752 276.816 17.2952 278.826 17.2952C281.676 17.2952 283.941 18.2252 285.621 20.0852C287.301 21.9452 288.141 24.4652 288.141 27.6452C288.141 28.2452 288.021 28.6802 287.781 28.9502C287.541 29.2202 287.151 29.3552 286.611 29.3552H272.121C272.391 34.5152 274.836 37.0952 279.456 37.0952C280.626 37.0952 281.631 36.9452 282.471 36.6452C283.311 36.3152 284.211 35.8802 285.171 35.3402C285.951 34.8902 286.476 34.6652 286.746 34.6652ZM278.871 20.1302C276.951 20.1302 275.406 20.7302 274.236 21.9302C273.096 23.1302 272.421 24.8252 272.211 27.0152H284.946C284.886 24.7952 284.331 23.1002 283.281 21.9302C282.231 20.7302 280.761 20.1302 278.871 20.1302Z" fill="#DE2F21"/>
<path d="M91.3064 40.0652C89.2664 40.0652 87.4514 39.6002 85.8614 38.6702C84.3014 37.7402 83.0864 36.4202 82.2164 34.7102C81.3764 33.0002 80.9564 31.0202 80.9564 28.7702C80.9564 26.5202 81.3914 24.5252 82.2614 22.7852C83.1614 21.0452 84.4064 19.6952 85.9964 18.7352C87.5864 17.7752 89.4164 17.2952 91.4864 17.2952C92.6264 17.2952 93.7514 17.4602 94.8614 17.7902C96.0014 18.0902 96.9914 18.5402 97.8314 19.1402C98.3714 19.5002 98.7464 19.8602 98.9564 20.2202C99.1964 20.5502 99.3164 20.9252 99.3164 21.3452C99.3164 21.7652 99.1964 22.1102 98.9564 22.3802C98.7464 22.6502 98.4614 22.7852 98.1014 22.7852C97.8914 22.7852 97.6664 22.7252 97.4264 22.6052C97.1864 22.4852 96.9764 22.3652 96.7964 22.2452C96.6464 22.1252 96.5414 22.0502 96.4814 22.0202C95.7014 21.5102 94.9514 21.1052 94.2314 20.8052C93.5414 20.5052 92.6864 20.3552 91.6664 20.3552C89.4764 20.3552 87.7664 21.1052 86.5364 22.6052C85.3364 24.0752 84.7364 26.1302 84.7364 28.7702C84.7364 31.4102 85.3364 33.4502 86.5364 34.8902C87.7664 36.3302 89.4764 37.0502 91.6664 37.0502C92.6864 37.0502 93.5564 36.9002 94.2764 36.6002C95.0264 36.3002 95.7764 35.8952 96.5264 35.3852C96.8564 35.1752 97.1714 34.9952 97.4714 34.8452C97.7714 34.6952 98.0264 34.6202 98.2364 34.6202C98.5664 34.6202 98.8364 34.7552 99.0464 35.0252C99.2864 35.2952 99.4064 35.6402 99.4064 36.0602C99.4064 36.4502 99.3014 36.8102 99.0914 37.1402C98.8814 37.4402 98.4914 37.7852 97.9214 38.1752C97.0814 38.7452 96.0614 39.2102 94.8614 39.5702C93.6914 39.9002 92.5064 40.0652 91.3064 40.0652Z" fill="#2B3553"/>
<path d="M114.235 40.0652C112.165 40.0652 110.335 39.6002 108.745 38.6702C107.185 37.7402 105.97 36.4202 105.1 34.7102C104.26 32.9702 103.84 30.9602 103.84 28.6802C103.84 26.4002 104.26 24.4052 105.1 22.6952C105.97 20.9552 107.185 19.6202 108.745 18.6902C110.335 17.7602 112.165 17.2952 114.235 17.2952C116.305 17.2952 118.135 17.7602 119.725 18.6902C121.315 19.6202 122.53 20.9552 123.37 22.6952C124.24 24.4052 124.675 26.4002 124.675 28.6802C124.675 30.9602 124.24 32.9702 123.37 34.7102C122.53 36.4202 121.315 37.7402 119.725 38.6702C118.135 39.6002 116.305 40.0652 114.235 40.0652ZM114.235 37.0502C116.395 37.0502 118.045 36.3452 119.185 34.9352C120.355 33.4952 120.94 31.4102 120.94 28.6802C120.94 26.0102 120.355 23.9552 119.185 22.5152C118.015 21.0452 116.365 20.3102 114.235 20.3102C112.105 20.3102 110.455 21.0452 109.285 22.5152C108.115 23.9552 107.53 26.0102 107.53 28.6802C107.53 31.3802 108.1 33.4502 109.24 34.8902C110.41 36.3302 112.075 37.0502 114.235 37.0502Z" fill="#2B3553"/>
<path d="M138.836 40.0652C137.456 40.0652 136.136 39.9002 134.876 39.5702C133.646 39.2402 132.55 38.7752 131.59 38.1752C131.05 37.8152 130.66 37.4852 130.42 37.1852C130.21 36.8552 130.106 36.4652 130.106 36.0152C130.106 35.6252 130.21 35.3102 130.42 35.0702C130.66 34.8002 130.961 34.6652 131.321 34.6652C131.681 34.6652 132.206 34.8902 132.896 35.3402C133.796 35.8802 134.681 36.3152 135.551 36.6452C136.451 36.9452 137.56 37.0952 138.88 37.0952C140.5 37.0952 141.76 36.8102 142.66 36.2402C143.56 35.6702 144.011 34.8452 144.011 33.7652C144.011 33.1052 143.845 32.5802 143.515 32.1902C143.185 31.7702 142.616 31.4102 141.806 31.1102C140.996 30.7802 139.811 30.4502 138.25 30.1202C135.61 29.5502 133.72 28.7852 132.58 27.8252C131.44 26.8652 130.871 25.5602 130.871 23.9102C130.871 22.6202 131.23 21.4802 131.95 20.4902C132.67 19.5002 133.66 18.7202 134.92 18.1502C136.21 17.5802 137.666 17.2952 139.286 17.2952C140.456 17.2952 141.581 17.4602 142.66 17.7902C143.771 18.0902 144.746 18.5252 145.586 19.0952C146.606 19.8152 147.116 20.5652 147.116 21.3452C147.116 21.7352 146.996 22.0652 146.756 22.3352C146.516 22.6052 146.231 22.7402 145.901 22.7402C145.541 22.7402 145 22.4852 144.28 21.9752C143.44 21.4352 142.646 21.0152 141.896 20.7152C141.146 20.4152 140.215 20.2652 139.105 20.2652C137.695 20.2652 136.555 20.5802 135.685 21.2102C134.845 21.8402 134.426 22.6802 134.426 23.7302C134.426 24.3902 134.576 24.9302 134.876 25.3502C135.206 25.7402 135.73 26.1002 136.45 26.4302C137.2 26.7302 138.265 27.0302 139.645 27.3302C141.685 27.7802 143.261 28.2752 144.371 28.8152C145.511 29.3552 146.321 30.0152 146.801 30.7952C147.281 31.5752 147.521 32.5652 147.521 33.7652C147.521 35.6552 146.726 37.1852 145.136 38.3552C143.546 39.4952 141.446 40.0652 138.836 40.0652Z" fill="#2B3553"/>
<path d="M178.817 17.2952C183.677 17.2952 186.107 20.1902 186.107 25.9802V38.1752C186.107 38.7452 185.942 39.1952 185.612 39.5252C185.282 39.8252 184.847 39.9752 184.307 39.9752C183.767 39.9752 183.317 39.8252 182.957 39.5252C182.627 39.1952 182.462 38.7452 182.462 38.1752V26.0702C182.462 24.0602 182.102 22.6052 181.382 21.7052C180.662 20.8052 179.537 20.3552 178.007 20.3552C176.177 20.3552 174.737 20.9702 173.687 22.2002C172.637 23.4302 172.112 25.0952 172.112 27.1952V38.1752C172.112 38.7452 171.932 39.1952 171.572 39.5252C171.242 39.8252 170.807 39.9752 170.267 39.9752C169.727 39.9752 169.292 39.8252 168.962 39.5252C168.632 39.1952 168.467 38.7452 168.467 38.1752V26.0702C168.467 24.0602 168.107 22.6052 167.387 21.7052C166.667 20.8052 165.527 20.3552 163.967 20.3552C162.167 20.3552 160.727 20.9702 159.647 22.2002C158.597 23.4302 158.072 25.0952 158.072 27.1952V38.1752C158.072 38.7452 157.907 39.1952 157.577 39.5252C157.247 39.8252 156.812 39.9752 156.272 39.9752C155.732 39.9752 155.282 39.8252 154.922 39.5252C154.592 39.1952 154.427 38.7452 154.427 38.1752V19.1852C154.427 18.6452 154.592 18.2102 154.922 17.8802C155.282 17.5502 155.732 17.3852 156.272 17.3852C156.782 17.3852 157.202 17.5502 157.532 17.8802C157.862 18.1802 158.027 18.6002 158.027 19.1402V21.3002C158.687 20.0102 159.602 19.0202 160.772 18.3302C161.942 17.6402 163.292 17.2952 164.822 17.2952C168.242 17.2952 170.477 18.7352 171.527 21.6152C172.157 20.2952 173.117 19.2452 174.407 18.4652C175.697 17.6852 177.167 17.2952 178.817 17.2952Z" fill="#2B3553"/>
<path d="M203.187 40.0652C201.117 40.0652 199.287 39.6002 197.697 38.6702C196.137 37.7402 194.922 36.4202 194.052 34.7102C193.212 32.9702 192.792 30.9602 192.792 28.6802C192.792 26.4002 193.212 24.4052 194.052 22.6952C194.922 20.9552 196.137 19.6202 197.697 18.6902C199.287 17.7602 201.117 17.2952 203.187 17.2952C205.257 17.2952 207.087 17.7602 208.677 18.6902C210.267 19.6202 211.482 20.9552 212.322 22.6952C213.192 24.4052 213.627 26.4002 213.627 28.6802C213.627 30.9602 213.192 32.9702 212.322 34.7102C211.482 36.4202 210.267 37.7402 208.677 38.6702C207.087 39.6002 205.257 40.0652 203.187 40.0652ZM203.187 37.0502C205.347 37.0502 206.997 36.3452 208.137 34.9352C209.307 33.4952 209.892 31.4102 209.892 28.6802C209.892 26.0102 209.307 23.9552 208.137 22.5152C206.967 21.0452 205.317 20.3102 203.187 20.3102C201.057 20.3102 199.407 21.0452 198.237 22.5152C197.067 23.9552 196.482 26.0102 196.482 28.6802C196.482 31.3802 197.052 33.4502 198.192 34.8902C199.362 36.3302 201.027 37.0502 203.187 37.0502Z" fill="#2B3553"/>
<path fill-rule="evenodd" clip-rule="evenodd" d="M32.3003 12.47C29.103 12.47 25.863 12.976 22.5804 13.9882C19.8093 14.8738 17.0596 16.1179 14.3312 17.7204C12.1144 18.9856 9.94022 20.4406 7.80866 22.0853C6.31657 23.2661 4.90974 24.5102 3.58817 25.8175L2.11739 27.3357L0.902405 28.6642L2.11739 29.9926L3.46028 31.3843C4.65395 32.5651 5.9542 33.7038 7.36103 34.8003C9.27944 36.3606 11.2618 37.7734 13.3081 39.0386C15.866 40.5568 18.4238 41.7798 20.9817 42.7076C24.0085 43.8462 27.014 44.521 29.9982 44.7319C30.6803 44.8162 31.4477 44.8584 32.3003 44.8584C33.1529 44.8584 33.9203 44.8162 34.6024 44.7319C37.5866 44.521 40.5921 43.8462 43.6189 42.7076C46.1768 41.7798 48.7346 40.5568 51.2925 39.0386C53.3388 37.7734 55.3212 36.3606 57.2396 34.8003C58.6464 33.7038 59.9466 32.5651 61.1403 31.3843L62.4832 29.9926L63.6982 28.6642L62.4832 27.3357L61.0124 25.8175C59.6909 24.5102 58.284 23.2661 56.7919 22.0853C54.6604 20.4406 52.4862 18.9856 50.2694 17.7204C47.541 16.1179 44.7912 14.8738 42.0202 13.9882C38.7376 12.976 35.4976 12.47 32.3003 12.47ZM14.3952 22.4648C14.0541 23.8987 13.8836 25.2904 13.8836 26.6399C13.8836 30.1402 14.8215 33.3664 16.6973 36.3185C13.1162 34.252 9.81233 31.7006 6.78551 28.6642C9.00234 26.429 11.5389 24.3626 14.3952 22.4648ZM44.5781 19.3652C40.3576 17.4674 36.265 16.5185 32.3003 16.5185C28.293 16.5185 24.1577 17.4885 19.8946 19.4284H19.9586C18.637 21.6214 17.9762 24.0252 17.9762 26.6399C17.9762 29.0437 18.5304 31.2789 19.6388 33.3453C20.7472 35.4118 22.282 37.0987 24.243 38.406C26.204 39.7133 28.3569 40.4935 30.7016 40.7466C31.4264 40.7887 31.9592 40.8098 32.3003 40.8098L33.899 40.7466C38.2181 40.7466 45.0349 37.7945 47.9033 36.3185C51.4843 34.252 54.7883 31.7006 57.8151 28.6642C57.8151 28.6642 48.7986 21.2629 44.5781 19.3652Z" fill="#2B3553"/>
<path d="M32.3003 20.5671C30.595 20.5671 29.1456 21.1575 27.9519 22.3383C26.7582 23.5191 26.1614 24.953 26.1614 26.6399C26.1614 28.3268 26.7582 29.7607 27.9519 30.9415C29.1456 32.1223 30.595 32.7127 32.3003 32.7127C34.0055 32.7127 35.455 32.1223 36.6487 30.9415C37.8424 29.7607 38.4392 28.3268 38.4392 26.6399C38.4392 24.953 37.8424 23.5191 36.6487 22.3383C35.455 21.1575 34.0055 20.5671 32.3003 20.5671Z" fill="#2B3553"/>
<path fill-rule="evenodd" clip-rule="evenodd" d="M12.9833 54.0954C14.5954 55.373 16.2668 55.7966 17.5225 55.885C18.7616 55.9722 19.9275 55.7669 20.9647 55.4599C23.0523 54.842 25.3243 53.5932 27.6352 51.9582C32.2973 48.6594 37.645 43.4061 42.6404 36.9984C47.6357 30.5907 51.4353 24.1105 53.5131 18.7638C54.5429 16.1137 55.2096 13.5928 55.312 11.4016C55.3628 10.313 55.2852 9.1223 54.9084 7.92902C54.5266 6.71967 53.7234 5.1824 52.1112 3.90485C50.4991 2.62731 48.8277 2.20363 47.572 2.11528C46.3329 2.02811 45.167 2.23339 44.1298 2.54039C42.0422 3.1583 39.7701 4.40706 37.4593 6.04211C33.832 8.60865 29.7897 12.3584 25.8212 16.9145C26.9025 16.6181 28.0139 16.3492 29.1508 16.111C30.5595 15.8159 31.8372 15.5541 32.9974 15.3288C40.4877 7.83792 47.4839 3.92874 50.3327 6.18624C54.0991 9.17091 49.1895 21.8046 39.3669 34.4044C29.5443 47.0041 18.5282 54.7987 14.7618 51.814C12.4754 50.0022 13.3862 44.6345 16.6525 37.8771C15.0709 37.7673 13.6678 37.525 12.4542 37.1494C12.1363 37.8617 11.845 38.5582 11.5814 39.2364C10.5515 41.8866 9.88484 44.4075 9.78252 46.5986C9.73169 47.6873 9.80931 48.878 10.1861 50.0712C10.5679 51.2806 11.3711 52.8179 12.9833 54.0954Z" fill="url(#paint0_angular_22_15)"/>
<path fill-rule="evenodd" clip-rule="evenodd" d="M38.6349 13.1214C36.5051 12.6876 34.3935 12.4707 32.3003 12.4707C29.103 12.4707 25.863 12.9768 22.5804 13.9889C19.8093 14.8745 17.0596 16.1186 14.3312 17.7212C12.1144 18.9863 9.94022 20.4413 7.80866 22.086C6.31657 23.2668 4.90974 24.5109 3.58817 25.8183L2.11739 27.3365L0.902405 28.6649L2.11739 29.9933L3.46028 31.385C4.65395 32.5659 5.9542 33.7045 7.36103 34.801C9.27944 36.3614 11.2618 37.7741 13.3081 39.0393C15.4503 40.3108 17.5924 41.3752 19.7346 42.2326L22.8838 37.382C21.5584 36.2537 20.4768 34.9083 19.6388 33.346C18.5304 31.2796 17.9762 29.0445 17.9762 26.6406C17.9762 24.0259 18.637 21.6221 19.9586 19.4292H19.8946C24.1577 17.4892 28.293 16.5193 32.3003 16.5193C33.5969 16.5193 34.9072 16.6207 36.2312 16.8237L38.6349 13.1214ZM33.7056 20.7138C33.2582 20.6165 32.7898 20.5678 32.3003 20.5678C30.595 20.5678 29.1456 21.1582 27.9519 22.339C26.7582 23.5199 26.1614 24.9537 26.1614 26.6406C26.1614 28.064 26.5863 29.3072 27.4361 30.3702L33.7056 20.7138ZM13.8836 26.6406C13.8836 25.2911 14.0541 23.8994 14.3952 22.4656C11.5389 24.3633 9.00234 26.4298 6.78551 28.6649C9.81233 31.7013 13.1162 34.2528 16.6973 36.3192C14.8215 33.3671 13.8836 30.1409 13.8836 26.6406Z" fill="#2B3553"/>
<path d="M27.9519 22.3391C29.1456 21.1583 30.595 20.5679 32.3003 20.5679C34.0055 20.5679 35.455 21.1583 36.6487 22.3391C37.8423 23.5199 38.4392 24.9538 38.4392 26.6407C38.4392 28.3276 37.8423 29.7615 36.6487 30.9423C35.455 32.1231 34.0055 32.7135 32.3003 32.7135C30.595 32.7135 29.1456 32.1231 27.9519 30.9423C26.7582 29.7615 26.1614 28.3276 26.1614 26.6407C26.1614 24.9538 26.7582 23.5199 27.9519 22.3391Z" fill="#DE2F21"/>
<defs>
<radialGradient id="paint0_angular_22_15" cx="0" cy="0" r="1" gradientUnits="userSpaceOnUse" gradientTransform="translate(32.25 28.75) rotate(127.321) scale(31.751 13.2407)">
<stop stop-color="#DE2F21"/>
<stop offset="0.151069" stop-color="#8F150B"/>
<stop offset="0.305" stop-color="#8F150B"/>
<stop offset="0.484254" stop-color="#DE2F21"/>
<stop offset="1" stop-color="#DE2F21"/>
</radialGradient>
</defs>
</svg>
