<svg height="24" viewBox="0 0 212 24" width="212" xmlns="http://www.w3.org/2000/svg"><g fill="none" fill-rule="evenodd"><path d="m3.58912774 0h5.40908823l4.30023293 12.1504018 4.5331004-12.1504018h5.4778545l3.1905962 22.7368421h-5.4911388l-1.5472399-13.09349818h-.0547004l-5.0808859 13.09349818h-2.1778574l-4.86208418-13.09349818h-.0547004l-1.76682296 13.09349818h-5.46457006z" fill="#16b777"/><path d="m35.2492212 18.7920899-1.4923201 3.9447522h-5.9949963l8.3600465-22.7368421h6.1637562l8.190483 22.7360284h-6.023123l-1.4216017-3.9447522h-7.7822446zm3.9151333-11.21314253h-.0604092l-2.5087072 7.57894733h5.047619z" fill="#16b777" fill-rule="nonzero"/><path d="m55.3257659 0h5.4100292l4.3003598 12.1504018 4.533234-12.1504018h5.478016l3.1906903 22.7368421h-5.4920822l-1.5472855-13.09349818h-.054702l-5.0802542 13.09349818h-2.1779216l-4.8622276-13.09349818h-.0547021l-1.7660936 13.09349818h-5.4647312z" fill="#16b777"/><g fill="#fff"><path d="m94.0223803 6.16013299c-1.1378094-.92550263-2.4528978-1.39761822-3.946877-1.41634677-.5930792 0-1.1523141.14436593-1.676899.43231742-.5640698.29731576-.8557745.75304387-.8751141 1.36718431.0201454.60399582.351335 1.05972392.9919571 1.36640396.5898559.3074604 1.1644013.5345441 1.724442.68281181l1.5560269.43309777c1.5785897.39954245 2.8614456 1.04645781 3.847762 1.93840511.9959861.9208205 1.5036489 2.2365013 1.5229885 3.9470424 0 1.0698686-.1579396 2.1155461-.4746245 3.1385933-.3255489 1.0144632-.9347443 1.9025087-1.8259746 2.6641365-1.8404792 1.3671843-3.9396247 2.0414122-6.2974366 2.0226837-2.8662805-.0374571-5.4682539-.8615134-7.8067262-2.4713886l2.5012467-4.5510382c.7558535.611019 1.5608618 1.1244935 2.4142188 1.5419842.8718908.453387 1.7977711.681251 2.7768351.681251.7179803 0 1.3618257-.181823 1.9339537-.5446887.5713221-.3433568.8670559-.8880455.8872012-1.6317251 0-.3995424-.1232895-.7389975-.3706744-1.018365-.2570547-.2887319-.5866326-.5158156-.9871222-.6835922-.8646384-.3433568-1.6615885-.5946315-2.3924618-.7530439-.8735024-.2419104-1.6623944-.5165959-2.3674816-.8224955-.732485-.2887319-1.3569909-.641453-1.8735176-1.059724-.5261966-.418271-.9210455-.972324-1.1837408-1.66059827-.3102384-.67891002-.4649547-1.52481629-.4649547-2.53771883.0193395-2.23181915.7445721-3.9844995 2.1765036-5.25882141 1.4029223-1.29227011 3.2329259-1.94854979 5.4908168-1.96649799 2.4601502.01872855 4.7849237.61648151 6.975932 1.79325888z"/><path d="m108.900917 22.7368421h-5.805845v-17.73167727h-4.6665006v-5.00516483h15.1428576v5.00516483h-4.66971v17.73167727z"/><path d="m119.797105 18.7919487-1.492373 3.9448934h-5.995208l8.359538-22.7368421h6.163975l8.190773 22.7368421h-6.023337l-1.421652-3.9448934zm3.914006-11.21300133h-.059547l-2.508707 7.57894733h5.047619z" fill-rule="nonzero"/><path d="m155.214286 22.7368421h-6.844928l-5.174944-8.7466293h-.067848v8.7466293h-5.578947v-22.7368421h8.268962c2.168049 0 3.93672.55495406 5.306014 1.66323475 1.378546 1.1196727 2.0763 2.89682763 2.094804 5.3314648 0 1.59081405-.387042 2.97982663-1.160353 4.16785145-.772541 1.1587311-1.905909 1.9097906-3.398563 2.2531786zm-12.618174-11.368421h.618503c.550364 0 1.085003-.0433331 1.60217-.1318047.497074-.0649995.963572-.2130541 1.396874-.4432608.434176-.2184707.777498-.5407601 1.031713-.96777106.264699-.40444163.397485-.94068791.397485-1.60693328 0-.69964792-.131912-1.26297734-.397485-1.68998826-.254215-.42610816-.597537-.73756433-1.031713-.93527129-.433302-.22930396-.898927-.38819175-1.396874-.47485781-.264699-.04333303-.523283-.06590232-.777498-.06590232-.264699 0-.53988 0-.825545 0h-.618504v6.31578952z" fill-rule="nonzero"/><path d="m165.687186 22.7368421h-5.806153v-17.73167727h-4.666747v-5.00516483h15.142857v5.00516483h-4.669957z"/><path d="m191.807296 0v13.7151539c.019059 1.4347261-.084178 2.8171362-.308917 4.1448524-.253327 1.3491182-.903719 2.572995-1.952764 3.6724233-.926748.8988837-2.032971 1.5361874-3.315489 1.9079479-1.283313.3733459-2.576156.5596225-3.877734.5596225-1.292048 0-2.570596-.1862766-3.835644-.5596225-1.283313-.3725531-2.402241-1.0090642-3.358373-1.9079479-1.039515-1.0994283-1.685937-2.3233051-1.93847-3.6724233-.244592-1.3285088-.356564-2.710919-.33671-4.1448524v-13.7151539h5.745525v12.9264508c0 .7268751.03653 1.4299702.108796 2.1092852.06353.7078511.21362 1.3673495.450271 1.979288.245386.5643784.617833 1.0241249 1.118134 1.3768614.500302.3741386 1.182459.5596225 2.045677.5596225.872748 0 1.568406-.1854839 2.086972-.5596225.499507-.3527365.872748-.812483 1.118134-1.3768614.245386-.6119385.395476-1.2714369.449477-1.979288.03653-.679315.054795-1.3816174.054795-2.1092852v-12.9264508z"/><path d="m195.596018 0h8.564331c2.362036 0 4.249793.58422691 5.66327 1.75186705 1.422838 1.20751078 2.147519 3.11641933 2.176381 5.72835302-.064745 5.20271153-2.596836 7.77396093-7.594711 7.71537543h-3.166282v7.5412466h-5.643769v-22.7368421zm5.046839 10.1052632h.961711c.518623 0 1.032574-.0167162 1.541073-.0523288.499934-.0174429.932899-.10465749 1.300451-.26237053.387021-.1664345.693055-.41572285.919661-.74859185.216482-.32342075.324723-.79147235.324723-1.40415481 0-.64756829-.10902-1.15050572-.324723-1.50953909-.189228-.34159046-.476573-.59015202-.862814-.74786506-.367553-.15698625-.801296-.25437587-1.300452-.28853492-.509278-.02616437-1.041918-.03924656-1.597919-.03924656h-.961711z" fill-rule="nonzero"/></g></g></svg>